<svg width="1339" height="820" viewBox="0 0 1339 820" fill="none" xmlns="http://www.w3.org/2000/svg">
<g filter="url(#filter0_d_247_2)">
<path d="M59 53H1179V755H59V53Z" fill="#FFE0E2"/>
</g>
<path fill-rule="evenodd" clip-rule="evenodd" d="M745.796 77.8493L741.688 75L732 88.9696L736.109 91.8189L745.796 77.8493ZM214.121 92L219.082 92.6239L216.961 109.491L212 108.867L214.121 92ZM132.722 114L135.222 118.33L120.5 126.83L118 122.5L132.722 114ZM334.688 209L338.796 211.849L329.109 225.819L325 222.97L334.688 209ZM281.082 154.624L276.121 154L274 170.867L278.961 171.491L281.082 154.624ZM106.563 169L103 172.508L114.928 184.621L118.491 181.113L106.563 169ZM906.722 221L909.222 225.33L894.5 233.83L892 229.5L906.722 221ZM1116.22 112.33L1113.72 108L1099 116.5L1101.5 120.83L1116.22 112.33ZM1058.12 273L1063.08 273.624L1060.96 290.491L1056 289.867L1058.12 273ZM1110.08 485.624L1105.12 485L1103 501.867L1107.96 502.491L1110.08 485.624ZM924 352.508L927.563 349L939.491 361.113L935.928 364.621L924 352.508ZM778.563 365L775 368.508L786.928 380.621L790.491 377.113L778.563 365ZM278.397 282.537L276 278.149L290.92 270L293.316 274.388L278.397 282.537ZM196.384 291.228L201.329 291.969L203.849 275.157L198.905 274.416L196.384 291.228ZM107.945 256.553L103 255.812L105.52 239L110.465 239.741L107.945 256.553ZM566 448.812L570.945 449.553L573.465 432.741L568.52 432L566 448.812ZM627.308 616.004L624.736 620.292L610.157 611.549L612.729 607.261L627.308 616.004ZM377.638 275.815L381.282 272.392L369.645 260L366 263.423L377.638 275.815ZM481.303 104L485.412 106.849L475.724 120.819L471.616 117.97L481.303 104ZM466.397 275.537L464 271.149L478.92 263L481.316 267.388L466.397 275.537ZM332 114.149L334.397 118.537L349.316 110.388L346.92 106L332 114.149ZM391.945 172.969L387 172.228L389.52 155.416L394.465 156.157L391.945 172.969ZM562.638 127.815L566.282 124.392L554.645 112L551 115.423L562.638 127.815ZM205.093 493.542L200 492.823L202.516 476L207.609 476.719L205.093 493.542ZM132.228 419.308L128.007 416.449L118 430.394L122.221 433.254L132.228 419.308ZM243 339.541L247.896 338L253.287 354.173L248.391 355.713L243 339.541ZM619.896 356L615 357.541L620.391 373.713L625.287 372.173L619.896 356ZM976.397 126.537L974 122.149L988.92 114L991.316 118.388L976.397 126.537ZM1033.15 196.299L1038.14 195.961L1036.99 179L1032 179.338L1033.15 196.299ZM885.329 124.969L880.384 124.228L882.905 107.416L887.849 108.157L885.329 124.969ZM800.938 226.101L803.374 221.734L788.527 213.453L786.091 217.819L800.938 226.101ZM1064.94 598.553L1060 597.812L1062.52 581L1067.46 581.741L1064.94 598.553ZM962.896 263L958 264.541L963.391 280.713L968.287 279.173L962.896 263ZM853 410.541L857.896 409L863.287 425.173L858.391 426.713L853 410.541ZM357.788 539L356 543.688L372.408 549.594L374.195 544.905L357.788 539ZM357.225 372.696L360.916 369.296L372.97 381.897L369.28 385.297L357.225 372.696ZM385.1 385.632L383.444 380.895L367.095 386.962L368.752 391.698L385.1 385.632Z" fill="#FFEFF0"/>
<path fill-rule="evenodd" clip-rule="evenodd" d="M820.615 132.961C821.747 127.894 827.332 125.231 831.982 127.54L852.44 137.703C855.817 139.38 857.565 143.188 856.633 146.843L851.669 166.323C850.537 170.765 845.912 173.349 841.536 171.985L820.859 165.539C816.885 164.3 814.525 160.22 815.432 156.157L820.615 132.961ZM147.827 198.02C145.881 202.84 148.976 208.206 154.121 208.935L207.028 216.44C211.223 217.035 215.155 214.256 215.993 210.102L223.865 171.102C224.759 166.671 221.807 162.379 217.349 161.63L172.338 154.065C168.636 153.443 164.999 155.478 163.594 158.96L147.827 198.02ZM1036.99 327.968C1035.16 332.828 1038.38 338.118 1043.53 338.733L1107.97 346.419C1112.09 346.91 1115.89 344.179 1116.75 340.124L1129.49 279.644C1130.44 275.142 1127.4 270.77 1122.85 270.084L1068.65 261.916C1064.91 261.354 1061.3 263.475 1059.97 267.005L1036.99 327.968ZM414.628 455.366C413.679 460.47 408.193 463.332 403.464 461.19L338.073 431.583C334.637 430.028 332.755 426.285 333.554 422.599L347.007 360.592C347.979 356.112 352.509 353.363 356.931 354.57L422.582 372.48C426.598 373.576 429.103 377.568 428.341 381.661L414.628 455.366ZM173.682 728.255C175.778 733.12 181.937 734.641 186.057 731.312L222.845 701.589C225.864 699.15 226.697 694.896 224.821 691.499L187.006 623.017C184.675 618.795 179.167 617.58 175.276 620.43L143.894 643.414C140.886 645.617 139.799 649.608 141.274 653.033L173.682 728.255ZM883.603 552.139C879.347 555.119 873.425 553.315 871.552 548.47L864.175 529.377C862.814 525.857 864.099 521.865 867.257 519.799L880.669 511.025C884.527 508.501 889.715 509.752 891.998 513.757L901.633 530.653C903.679 534.242 902.656 538.799 899.271 541.169L883.603 552.139ZM1103.03 725.347C1108.33 725.521 1112.32 720.598 1111.07 715.455L1099.62 668.575C1098.58 664.282 1094.25 661.652 1089.96 662.7L1071.06 667.313C1066.82 668.348 1064.19 672.59 1065.16 676.847L1074.55 718.427C1075.35 721.979 1078.45 724.541 1082.09 724.661L1103.03 725.347ZM157.56 304.804C157.453 299.613 152.506 295.898 147.491 297.242L124.533 303.395C120.512 304.473 117.989 308.454 118.732 312.551L122.599 333.861C123.417 338.371 127.85 341.273 132.311 340.218L151.874 335.593C155.544 334.725 158.11 331.413 158.032 327.643L157.56 304.804Z" fill="#FFE6E7"/>
<g clip-path="url(#clip0_247_2)">
<path d="M117.909 336.361L130.695 382.209L160.843 373.802L148.057 327.954L117.909 336.361Z" fill="#362E2D"/>
<path d="M115.2 339.5L117.8 336.6L146.5 331.7L159.3 373L148.5 397.3L128.3 384.1L115.2 339.5Z" fill="white"/>
<path d="M136.8 357.2L149.6 399.2L127.9 385.3L115.2 339.5L136.8 357.2Z" fill="#4E3734"/>
<path d="M117.8 337.4L144.6 336.4L157.6 376.8L159.3 373L146.5 331.7L118.6 336.4L117.8 337.4Z" fill="#F7F7F7"/>
<path d="M237.9 404.3C254.745 404.3 268.4 390.645 268.4 373.8C268.4 356.955 254.745 343.3 237.9 343.3C221.055 343.3 207.4 356.955 207.4 373.8C207.4 390.645 221.055 404.3 237.9 404.3Z" fill="#8C503E"/>
<path d="M377.2 662.5C377.2 662.5 381 672 382.7 677.2C384.4 682.4 387.4 688.9 389.9 689.1C392.4 689.3 392.9 679.6 391.3 664.8C389.7 650.1 390.9 648 382.8 648.1C379.2 648.1 377.2 647.8 377.2 647.8V662.5V662.5Z" fill="#FF6ED9"/>
<path d="M153.2 713.9C153.2 713.9 142.3 715.6 136.6 717.9C130.9 720.2 126.5 722.5 126.5 725.3C126.5 727.5 136.9 726.8 153.1 726.8C169.7 726.9 174.4 727.3 171.5 718.9C170.5 716 167.9 713.6 167.9 713.6L153.2 713.9Z" fill="#FF6ED9"/>
<path d="M268.4 373.8C268.4 356.9 254.7 343.3 237.9 343.3C233.3 343.3 228.9 344.3 225 346.2L224.2 346.6C223.2 348.5 222.6 350.6 222.6 352.9C222.6 360.2 228.5 366.1 235.8 366.1C236.4 366.1 237 366 237.7 366C236.9 367 236.5 368.3 236.5 369.7C236.5 372.8 238.9 375.4 241.9 375.8C241.6 376.6 241.5 377.4 241.5 378.2C241.5 382 244.6 385.1 248.4 385.1H248.5C249.1 387.9 251.5 389.9 254.5 389.9C255.3 389.9 256.1 389.7 256.8 389.5C257.2 391.6 259.1 393.2 261.3 393.2L263 391.6C266.3 386.6 268.4 380.4 268.4 373.8Z" fill="#4E3734"/>
<path d="M146.8 409.7C146.8 409.7 147.4 399.8 144.5 394.5C141.6 389.2 135.4 386.3 132.5 381.7C129.7 377.1 129.8 370.8 127.1 370.2C124.4 369.6 119.9 380.4 122.8 385.6C125.6 390.8 129.2 394.2 131 399.5C132.8 404.8 135.6 409.5 137.3 411C139.1 412.5 146.8 409.7 146.8 409.7Z" fill="#8C503E"/>
<path d="M317.3 528.6C317.3 528.6 320.8 537.9 325.7 541.5C330.5 545.1 337.4 545.2 341.9 548.3C346.4 551.3 348.8 557.1 351.5 556.5C354.2 555.9 353.8 544.2 349.1 540.7C344.4 537.1 339.7 535.5 335.9 531.4C332.1 527.3 327.6 524.2 325.4 523.5C323.2 522.8 317.3 528.6 317.3 528.6Z" fill="#8C503E"/>
<path d="M201.2 549.1C201.2 549.1 181.7 589.8 173.2 621.4C162 663.2 153.2 714 153.2 714L167.8 713.8C167.8 713.8 185.5 693.2 211.1 651.5C236.9 609.4 248.6 582.7 248.6 582.7C248.6 582.7 265.9 645.1 277.2 654.9C293 668.6 329.9 668 341.6 667.2C353.3 666.4 377.1 662.6 377.1 662.6V647.9C377.1 647.9 347.1 643.1 335.1 638.1C323.1 633.1 308.8 629 308.8 629C308.8 629 304 595.6 300.5 577.9C297 560.2 292.2 539.9 292.2 539.9L201.2 549.1Z" fill="#5441AF"/>
<path d="M248.7 582.6L254.5 570.4C254.5 570.4 257.8 576.9 257.4 585.2C257.1 593.5 255.3 604.6 255.3 604.6L248.7 582.6Z" fill="#4F3D9D"/>
<path d="M111 423.9C111 423.9 116.2 424.1 124.7 429.6C143.7 441.9 149.9 468.5 172.9 472.4C192.2 475.7 204.7 469.9 204.7 469.9C204.7 469.9 197.2 491.4 195.2 501.2C193.2 511 193.4 528.7 185.4 536.5C177.4 544.3 173.7 548 173.7 548C173.7 548 208.7 554.3 237 549C265.3 543.7 280.7 541.8 285.8 542C291 542.2 299 543.2 299 543.2C299 543.2 295.8 536 292.8 528.7C289.8 521.4 289.1 514 289.1 514C289.1 514 308.1 529.2 311.1 534.2C314.1 539.2 314.6 547.5 314.6 547.5C314.6 547.5 318.9 538.2 321.9 535C324.9 531.8 327.2 528 330.9 525.2C334.6 522.4 336.7 520.2 336.7 520.2C336.7 520.2 332.7 520.5 329.2 517.4C325.7 514.2 306 490.1 302 486.2C298 482.4 283 466 283 466C283 466 281.2 413.8 250.3 414.8C230.8 415.4 219.5 420.3 207.1 427C194.8 433.7 183.9 441 183.9 441C183.9 441 162.9 428.3 155.6 413.1C153.1 408 152 404.2 152 404.2C152 404.2 144.3 405.6 133.7 410.8C122.4 416.5 111 423.9 111 423.9Z" fill="#FF353A"/>
<path d="M204.7 469.9C204.7 469.9 215.6 469.6 225.9 466.5C236.2 463.3 247.3 458.4 250 452.1C252.7 445.8 253.9 439.4 253.9 439.4C253.9 439.4 255.8 449.9 251.4 459.8C247 469.7 232.8 474.5 227.5 476.4C222.2 478.3 200.8 481.7 200.8 481.7L204.7 469.9Z" fill="#E2303D"/>
<path d="M284.2 477.2C284.2 477.2 285.8 494.8 286.5 500C287.2 505.2 289.3 514.2 289.3 514.2L294.5 518.4C294.5 518.4 290.8 507.3 289.4 499.4C287.8 491.5 284.2 477.2 284.2 477.2Z" fill="#E2303D"/>
<path d="M245.4 542.2C241.9 542.2 239.1 539.4 239.1 535.9C239.1 532.4 241.9 529.6 245.4 529.6C248.9 529.6 251.7 532.4 251.7 535.9C251.7 539.4 248.9 542.2 245.4 542.2ZM245.4 530.6C242.5 530.6 240.1 533 240.1 535.9C240.1 538.8 242.5 541.2 245.4 541.2C248.3 541.2 250.7 538.8 250.7 535.9C250.7 533 248.4 530.6 245.4 530.6Z" fill="#5441AF"/>
<path d="M273 441.3C275 441.3 276.8 440.3 278 438.8C277.9 438.4 277.7 438 277.6 437.6C276.7 439.2 275 440.2 273.1 440.2C270.2 440.2 267.8 437.8 267.8 434.9C267.8 432 270.2 429.6 273.1 429.6C273.4 429.6 273.7 429.6 274 429.7C273.8 429.3 273.6 429 273.4 428.6C273.3 428.6 273.2 428.6 273.1 428.6C269.6 428.6 266.8 431.4 266.8 434.9C266.8 438.4 269.5 441.3 273 441.3Z" fill="#5441AF"/>
<path d="M190.6 545C195.6 545 199.7 540.9 199.7 535.9C199.7 530.9 195.7 526.9 190.7 526.8C190.6 527.1 190.5 527.5 190.4 527.8C190.5 527.8 190.5 527.8 190.6 527.8C195.1 527.8 198.7 531.4 198.7 535.9C198.7 540.4 195.1 544 190.6 544C187.2 544 184.2 541.8 183 538.8C182.7 539.1 182.5 539.3 182.2 539.6C183.7 542.8 186.9 545 190.6 545Z" fill="#5441AF"/>
<path d="M215 445.9C211 445.9 207.8 442.7 207.8 438.7C207.8 434.7 211 431.5 215 431.5C219 431.5 222.2 434.7 222.2 438.7C222.2 442.7 218.9 445.9 215 445.9ZM215 432.6C211.6 432.6 208.8 435.4 208.8 438.8C208.8 442.2 211.6 445 215 445C218.4 445 221.2 442.2 221.2 438.8C221.2 435.4 218.4 432.6 215 432.6Z" fill="#5441AF"/>
<path d="M157.8 432.6C155.3 432.6 153.2 430.5 153.2 428C153.2 425.5 155.3 423.4 157.8 423.4C160.3 423.4 162.4 425.5 162.4 428C162.4 430.5 160.3 432.6 157.8 432.6ZM157.8 424.4C155.8 424.4 154.2 426 154.2 428C154.2 430 155.8 431.6 157.8 431.6C159.8 431.6 161.4 430 161.4 428C161.4 426 159.8 424.4 157.8 424.4Z" fill="#5441AF"/>
<path d="M305.9 490.4C305.3 491.5 304.1 492.2 302.8 492.2C300.8 492.2 299.2 490.6 299.2 488.6C299.2 487.2 300 486 301.2 485.4C301 485.2 300.7 484.9 300.5 484.7C299.1 485.5 298.2 487 298.2 488.7C298.2 491.2 300.3 493.3 302.8 493.3C304.4 493.3 305.8 492.5 306.6 491.3C306.4 490.9 306.2 490.6 305.9 490.4Z" fill="#5441AF"/>
<path d="M257.4 479.3C254.9 479.3 252.8 477.2 252.8 474.7C252.8 472.2 254.9 470.1 257.4 470.1C259.9 470.1 262 472.2 262 474.7C262 477.2 260 479.3 257.4 479.3ZM257.4 471.2C255.4 471.2 253.8 472.8 253.8 474.8C253.8 476.8 255.4 478.4 257.4 478.4C259.4 478.4 261 476.8 261 474.8C261 472.8 259.4 471.2 257.4 471.2Z" fill="#5441AF"/>
<path d="M125.2 425.4C123.6 425.4 122.2 426.4 121.5 427.7C121.8 427.9 122.1 428 122.4 428.2C122.9 427.1 124 426.4 125.2 426.4C126.9 426.4 128.3 427.8 128.3 429.5C128.3 430.3 128 431.1 127.4 431.6C127.7 431.8 127.9 432 128.2 432.2C128.9 431.5 129.3 430.5 129.3 429.5C129.3 427.2 127.5 425.4 125.2 425.4Z" fill="#5441AF"/>
<path d="M209.2 501.3C206.2 501.3 203.8 498.9 203.8 495.9C203.8 492.9 206.2 490.5 209.2 490.5C212.2 490.5 214.6 492.9 214.6 495.9C214.6 498.9 212.2 501.3 209.2 501.3ZM209.2 491.4C206.8 491.4 204.8 493.4 204.8 495.8C204.8 498.2 206.8 500.2 209.2 500.2C211.6 500.2 213.6 498.2 213.6 495.8C213.6 493.4 211.7 491.4 209.2 491.4Z" fill="#5441AF"/>
<path d="M307.9 522.5C305.7 522.5 303.8 523.8 302.9 525.7C303.2 525.9 303.4 526.2 303.7 526.4C304.3 524.7 305.9 523.4 307.9 523.4C310.3 523.4 312.3 525.4 312.3 527.8C312.3 529.7 311.1 531.3 309.4 531.9C309.7 532.2 309.9 532.4 310.1 532.7C312 531.8 313.3 530 313.3 527.8C313.3 524.9 310.9 522.5 307.9 522.5Z" fill="#5441AF"/>
<path d="M192.5 464.2C190.2 464.2 188.4 462.4 188.4 460.1C188.4 457.8 190.2 456 192.5 456C194.8 456 196.6 457.8 196.6 460.1C196.6 462.4 194.8 464.2 192.5 464.2ZM192.5 457C190.8 457 189.4 458.4 189.4 460.1C189.4 461.8 190.8 463.2 192.5 463.2C194.2 463.2 195.6 461.8 195.6 460.1C195.6 458.4 194.2 457 192.5 457Z" fill="#5441AF"/>
<path d="M273 514.3C269.8 514.3 267.3 511.7 267.3 508.6C267.3 505.5 269.9 502.9 273 502.9C276.1 502.9 278.7 505.5 278.7 508.6C278.7 511.7 276.2 514.3 273 514.3ZM273 503.8C270.4 503.8 268.3 505.9 268.3 508.5C268.3 511.1 270.4 513.2 273 513.2C275.6 513.2 277.7 511.1 277.7 508.5C277.7 505.9 275.6 503.8 273 503.8Z" fill="#5441AF"/>
<path d="M232.9 511.6C231.2 511.6 229.9 510.2 229.9 508.6C229.9 506.9 231.3 505.6 232.9 505.6C234.5 505.6 235.9 507 235.9 508.6C235.9 510.2 234.6 511.6 232.9 511.6ZM232.9 506.5C231.8 506.5 230.9 507.4 230.9 508.5C230.9 509.6 231.8 510.5 232.9 510.5C234 510.5 234.9 509.6 234.9 508.5C234.9 507.4 234 506.5 232.9 506.5Z" fill="#5441AF"/>
<path d="M160.3 467.3C161.1 466.3 161.6 465 161.6 463.5C161.6 460 158.8 457.2 155.3 457.2C153.7 457.2 152.2 457.8 151.1 458.8C151.3 459.1 151.6 459.3 151.8 459.6C152.7 458.8 154 458.2 155.3 458.2C158.2 458.2 160.6 460.6 160.6 463.5C160.6 464.7 160.2 465.8 159.5 466.7C159.7 466.9 160 467.1 160.3 467.3Z" fill="#5441AF"/>
<path d="M137.3 717.3C137.3 717.3 138.4 717.9 139.1 719C139.8 720.1 139.6 721.8 139.6 721.8" stroke="#5441AF" stroke-miterlimit="10"/>
<path d="M141 715.8C141 715.8 142.1 716.4 142.8 717.5C143.5 718.6 143.3 720.3 143.3 720.3" stroke="#5441AF" stroke-miterlimit="10"/>
<path d="M144.6 714.9C144.6 714.9 145.7 715.5 146.4 716.6C147.1 717.7 146.9 719.4 146.9 719.4" stroke="#5441AF" stroke-miterlimit="10"/>
<path d="M147.9 713.8C147.9 713.8 149 714.4 149.7 715.5C150.4 716.6 150.2 718.3 150.2 718.3" stroke="#5441AF" stroke-miterlimit="10"/>
<path d="M381.9 676.5C381.9 676.5 382.4 675.3 383.5 674.6C384.6 673.9 386.3 674 386.3 674" stroke="#5441AF" stroke-miterlimit="10"/>
<path d="M380.2 672.9C380.2 672.9 380.7 671.7 381.8 671C382.9 670.3 384.6 670.4 384.6 670.4" stroke="#5441AF" stroke-miterlimit="10"/>
<path d="M379.2 669.3C379.2 669.3 379.7 668.1 380.8 667.4C381.9 666.7 383.6 666.8 383.6 666.8" stroke="#5441AF" stroke-miterlimit="10"/>
<path d="M377.9 666.1C377.9 666.1 378.4 664.9 379.5 664.2C380.6 663.5 382.3 663.6 382.3 663.6" stroke="#5441AF" stroke-miterlimit="10"/>
<path d="M634.1 406.3L665.9 444.5L651.1 466.3L620.5 430.2L634.1 406.3Z" fill="#4F3D9D"/>
<path d="M620.5 432.7L620.6 430.4L634.2 407.8L664.3 444.5L654 459.3L643.2 455L620.5 432.7Z" fill="white"/>
<path d="M673.5 474.2L675 472.8L647.8 439.8L620.5 432V432.7L628.2 442.6L673.5 474.2Z" fill="#F7F7F7"/>
<path d="M647.2 440.8L675 474.9L649.7 470.2L620.5 432.7L647.2 440.8Z" fill="#5441AF"/>
<path d="M620.5 430.2V432.7L621.1 432.9L621 429.2L620.5 430.2Z" fill="#362E2D"/>
<path d="M711.6 567.2C711.6 567.2 690.8 585.2 682.8 592.7C674.8 600.2 670.8 603.2 668.8 608.7C666.8 614.2 662.3 653.7 661.5 666C660.7 678.3 660 704.8 660 704.8H673.8C673.8 704.8 678.8 687.3 683.8 677C688.8 666.7 696.1 655 699.3 646C702.5 637 704.1 624.7 704.1 624.7C704.1 624.7 716.9 623.5 731.9 616C746.9 608.5 753.2 604.7 753.2 604.7C753.2 604.7 762.5 623.2 770.5 638.7C778.5 654.2 781.5 659 788.5 665.7C795.5 672.4 822.7 684.1 835.2 687.9C852.5 693.1 867.6 695.1 867.6 695.1L870.1 681.8C870.1 681.8 850.1 671.7 839.2 664.2C829.2 657.3 820.9 649.5 818.4 643C815.9 636.5 812.3 599.4 809.1 582.7C805.9 566 799.6 558.9 799.6 558.9L711.6 567.2Z" fill="#FF6ED9"/>
<path d="M753.1 604.7C753.1 604.7 757.2 602.8 760.7 600.6C764.2 598.4 767.1 596 767.1 596C767.1 596 766.3 601.5 763.8 606.3C761.3 611.1 758.3 615.1 758.3 615.1L753.1 604.7Z" fill="#FF5ED2"/>
<path d="M716.4 610.8L710.4 606.1L715.1 600.1L721.1 604.8L716.4 610.8ZM711.8 606L716.2 609.4L719.6 605L715.2 601.6L711.8 606Z" fill="#5441AF"/>
<path d="M680.2 613.9L675.5 612.7L676.7 608L681.4 609.2L680.2 613.9ZM676.7 612L679.5 612.7L680.2 609.9L677.4 609.2L676.7 612Z" fill="#5441AF"/>
<path d="M749.1 590.5L744.4 589.3L745.6 584.6L750.3 585.8L749.1 590.5ZM745.6 588.6L748.4 589.3L749.1 586.5L746.3 585.8L745.6 588.6Z" fill="#5441AF"/>
<path d="M694.8 634.5L688.4 628.7L694.2 622.3L700.6 628.1L694.8 634.5ZM689.8 628.7L694.7 633.2L699.2 628.3L694.3 623.8L689.8 628.7Z" fill="#5441AF"/>
<path d="M780.4 591.6L774.7 586.6L779.7 580.9L785.4 585.9L780.4 591.6ZM776.1 586.6L780.3 590.3L784 586.1L779.8 582.4L776.1 586.6Z" fill="#5441AF"/>
<path d="M673.2 694.6L668.5 693.2L669.9 688.5L674.6 689.9L673.2 694.6ZM669.8 692.5L672.5 693.3L673.3 690.6L670.6 689.8L669.8 692.5Z" fill="#5441AF"/>
<path d="M666.9 676L665.4 668.9L672.5 667.4L674 674.5L666.9 676ZM666.6 669.6L667.7 674.8L672.9 673.7L671.8 668.5L666.6 669.6Z" fill="#5441AF"/>
<path d="M664.2 639.4C664.2 639.8 664.1 640.3 664.1 640.7L665.4 639.9L667.9 643.7L664.1 646.2L663.6 645.5C663.5 646 663.5 646.6 663.4 647.1L663.7 647.6L669.2 644.1L665.7 638.6L664.2 639.4Z" fill="#5441AF"/>
<path d="M702.2 580.7L697.7 583.4L696.1 580.8C695.8 581 695.6 581.2 695.3 581.5L697.3 584.8L703.5 581.1L700.8 576.7C700.5 576.9 700.3 577.1 700 577.4L702.2 580.7Z" fill="#5441AF"/>
<path d="M792.5 641.8L787.7 635.9L793.6 631.1L798.4 637L792.5 641.8ZM789.2 636.1L792.7 640.4L797 636.9L793.5 632.6L789.2 636.1Z" fill="#5441AF"/>
<path d="M795.3 664.3L791 662.1L793.2 657.8L797.5 660L795.3 664.3ZM792.3 661.7L794.9 663L796.2 660.4L793.6 659.1L792.3 661.7Z" fill="#5441AF"/>
<path d="M800 605.2L795.7 603L797.9 598.7L802.2 600.9L800 605.2ZM797 602.5L799.6 603.8L800.9 601.2L798.3 599.9L797 602.5Z" fill="#5441AF"/>
<path d="M820.8 647.7C820.6 647.4 820.4 647.2 820.2 646.9L816.6 649.4L812.8 643.9L817.5 640.7C817.4 640.4 817.3 640 817.3 639.6L811.5 643.6L816.4 650.7L820.8 647.7Z" fill="#5441AF"/>
<path d="M857.6 685.2L850.3 685.1L850.4 677.8L857.7 677.9L857.6 685.2ZM851.3 684.1L856.6 684.2L856.7 678.9L851.4 678.8L851.3 684.1Z" fill="#5441AF"/>
<path d="M823 682.2L820.8 676L827 673.8L829.2 680L823 682.2ZM822.1 676.6L823.6 680.9L827.9 679.4L826.4 675.1L822.1 676.6Z" fill="#5441AF"/>
<path d="M764.3 626.8L773.4 630.3L770.3 638.4C770.3 638.5 770.4 638.6 770.4 638.6C770.6 638.9 770.7 639.2 770.9 639.6L774.7 629.7L763.6 625.4C763.8 625.9 764 626.3 764.3 626.8Z" fill="#5441AF"/>
<path d="M683 658.9L688.5 666.5L689.8 665.5C690.2 664.8 690.5 664.2 690.9 663.5L688.7 665.1L684.4 659.1L690.4 654.8L693.4 658.9C693.6 658.6 693.7 658.2 693.9 657.9L690.7 653.4L683 658.9Z" fill="#5441AF"/>
<path d="M754.8 430.4C771.645 430.4 785.3 416.745 785.3 399.9C785.3 383.055 771.645 369.4 754.8 369.4C737.955 369.4 724.3 383.055 724.3 399.9C724.3 416.745 737.955 430.4 754.8 430.4Z" fill="#DF8E89"/>
<path d="M660.1 704.7C660.1 704.7 660.4 708.5 658.8 709.3C655.7 711.1 650.6 714 647.7 715.9C643.4 718.7 638.1 723.6 638.6 726.1C639.1 728.5 648.2 726.3 661.4 721.2C674.6 716.2 677.1 717.6 674.8 709.8C673.8 706.3 673.5 704.4 673.5 704.4L660.1 704.7Z" fill="#5441AF"/>
<path d="M867.4 695C867.4 695 871.1 695.5 871.7 697.2C872.8 700.6 874.7 706.2 876 709.4C877.9 714.2 881.7 720.3 884.2 720.3C886.7 720.3 886.3 710.9 884 697C881.7 683.1 883.6 680.9 875.5 681.6C871.9 681.9 870 681.8 870 681.8L867.4 695Z" fill="#5441AF"/>
<path d="M662.9 476C662.9 476 660.6 466.4 656.2 462.2C651.9 458 645.1 457 641 453.5C636.9 450 635.2 443.9 632.5 444.1C629.8 444.3 628.7 456 632.9 460.1C637.1 464.2 641.6 466.4 644.9 471C648.2 475.6 652.3 479.2 654.3 480.1C656.3 481 662.9 476 662.9 476Z" fill="#DF8E89"/>
<path d="M814.7 371.1C814.7 371.1 814.5 364.3 817.4 359C820.3 353.7 828.5 350.5 831.3 345.9C834.1 341.3 838.7 336.7 841.4 336.1C844.1 335.5 843.9 343.8 841.1 349C838.3 354.2 832.2 355.5 830.4 360.9C828.6 366.3 825.8 370.9 824.2 372.4C822.5 373.8 814.7 371.1 814.7 371.1Z" fill="#DF8E89"/>
<path d="M733.2 365.7C733.2 365.7 731.2 378.2 742.3 385C753.4 391.8 761.2 388.4 761.2 388.4C761.2 388.4 758.9 400.5 766.1 410C773.3 419.5 776.5 421.4 776.5 421.4C776.5 421.4 794.4 408.3 790.4 394.2C788.1 386.2 782.7 384.3 782.7 384.3C782.7 384.3 783 376.4 774.7 370.3C766.4 364.2 750.4 369.2 743.7 368.8C737 368.4 733.2 365.7 733.2 365.7Z" fill="#FF353A"/>
<path d="M653.1 482.2L662.6 472.2L669.6 479.5C669.6 479.5 679.4 481.3 684.2 482.9C689 484.5 693.1 487.2 693.1 487.2C693.1 487.2 716 466.3 728.2 460.2C740.4 454 759.4 450.2 774.2 442.9C789 435.6 802.2 421.6 802.2 421.6C802.2 421.6 807.2 405.8 809 399.4C810.8 393.1 813 381.9 813 381.9V370.8H826V381C826 381 830 391.7 831.2 409.8C832.4 428 828 442.6 828 442.6C828 442.6 810.5 458.8 804.3 464.9C798.1 471.1 790 479.6 790 479.6C790 479.6 795.7 500.1 800.5 521.1C805.3 542.1 806.2 561.1 806.2 561.1C806.2 561.1 784.9 577.1 755.5 578.1C726.1 579.1 706.7 567.4 706.7 567.4C706.7 567.4 707 550.1 708.4 538.6C709.7 527.1 715.7 510.1 715.7 510.1C715.7 510.1 710.7 515.8 706 519.3C701.3 522.8 696 525.6 696 525.6C696 525.6 681.8 520.8 673.2 509.6C664.5 498.4 660.5 488.9 660.5 488.9L653.1 482.2Z" fill="#5441AF"/>
<path d="M715.7 510.2C715.7 510.2 721.3 493.9 724.5 484.9C727.7 475.9 729.2 472.5 729.2 472.5C729.2 472.5 721.4 479.9 717 492.2C712.6 504.5 709.3 516.8 709.3 516.8L715.7 510.2Z" fill="#4F3D9D"/>
<path d="M556.2 565.1L558.3 561.3L591.1 542.2L604 565.1L603.4 567.9L569.3 587.7L556.2 565.1Z" fill="#FF5ED2"/>
<path d="M590.429 545.358L556.222 565.108L569.222 587.624L603.429 567.874L590.429 545.358Z" fill="#FF6ED9"/>
<path d="M422.2 712.6C422.2 712.6 416.6 678.3 421.9 644.7C427.3 610.6 436.4 575 436.4 575C436.4 575 465.2 581 485.7 577.2C506.2 573.4 530.7 566.5 530.7 566.5C530.7 566.5 534.9 585.8 537.3 608.8C539.6 631.8 538.1 628.3 541.4 639.6C544.7 650.9 556.3 683.9 560.6 693.6C565 703.3 569.7 715.3 569.7 715.3H554.4C554.4 715.3 524.2 683.8 511.4 664.8C498.6 645.8 482.8 612.1 482.8 612.1C482.8 612.1 465.8 647.3 458.9 661.9C452 676.6 434.7 715.9 434.7 715.9L422.2 712.6Z" fill="#4E3734"/>
<path d="M484.9 447C501.027 447 514.1 433.927 514.1 417.8C514.1 401.673 501.027 388.6 484.9 388.6C468.773 388.6 455.7 401.673 455.7 417.8C455.7 433.927 468.773 447 484.9 447Z" fill="#DF8E89"/>
<path d="M509.9 433C512.6 428.6 514.2 423.3 514.2 417.8C514.2 401.6 501.1 388.6 485 388.6C479 388.6 473.5 390.4 468.9 393.5C468.9 393.5 465.7 404 473.5 410.9C481.4 417.9 489.9 413.9 489.9 413.9C489.9 413.9 486.6 424 495.2 430.3C502.5 435.7 509.9 433 509.9 433Z" fill="#4E3734"/>
<path d="M513.2 406C527.007 406 538.2 394.807 538.2 381C538.2 367.193 527.007 356 513.2 356C499.393 356 488.2 367.193 488.2 381C488.2 394.807 499.393 406 513.2 406Z" fill="#4E3734"/>
<path d="M486.1 595.6C486.1 595.6 485.1 602.4 484.3 606C483.5 609.6 482.7 612.2 482.7 612.2L491.3 629.7C491.3 629.7 491.7 615.2 490.1 607.1C488.5 599 486.1 595.6 486.1 595.6Z" fill="#362E2D"/>
<path d="M422.2 712.6C422.2 712.6 412.3 714.3 407.2 714.9C402.1 715.5 395.5 717.2 394.9 719.6C394.3 722 403.1 724.4 416.9 725.9C430.7 727.3 431.9 728.9 433.1 721.1C433.6 717.5 434.5 716.1 434.5 716.1L422.2 712.6Z" fill="#FF353A"/>
<path d="M556.9 715.5C556.9 715.5 547.8 717.1 543 719.1C538.2 721.1 534.5 723.2 534.5 725.7C534.5 727.6 543.2 727 556.8 727.1C570.7 727.2 574.6 727.5 572.2 720C571.4 717.4 569.1 715.3 569.1 715.3L556.9 715.5Z" fill="#FF353A"/>
<path d="M393.5 507.6C393.5 507.6 388.9 501.9 385.7 500.1C382.5 498.3 377 496.3 374.4 494.8C371.8 493.3 366.6 489.8 365.1 492.1C363.6 494.4 365.9 498.4 369.5 500.5C373.1 502.7 378.7 512.3 384 513C389.3 513.7 391.6 513.9 391.6 513.9L393.5 507.6Z" fill="#DF8E89"/>
<path d="M570.6 543.9C570.6 543.9 572.9 543 576.3 546.4C579.7 549.8 582.9 557.6 584.1 560.5C585.3 563.4 585.6 566.3 586.7 568.3C587.8 570.4 588.1 572.6 586.7 573.4C585.3 574.2 581.1 571 577.8 567.7C574.5 564.4 570.5 562.2 568.4 557.7C566.4 553.4 566.6 549.9 566.6 549.9L570.6 543.9Z" fill="#DF8E89"/>
<path d="M395 503C395 503 410.6 505.8 416.1 506.8C421.6 507.8 428.1 509 428.1 509C428.1 509 443.6 489.2 454.2 478.3C464.8 467.5 470.6 460 486.3 460C506.5 460 530.2 485.6 543.1 500.7C558 518.2 572.2 541.5 572.2 541.5L564.4 553.3C564.4 553.3 546.3 539.6 539.1 535.6C531.9 531.6 521.4 526.3 521.4 526.3C521.4 526.3 525.2 536.6 527.8 548.1C530.4 559.6 530.8 566.4 530.8 566.4C530.8 566.4 514.1 577.7 484.7 579.4C455.3 581.1 436.5 574.9 436.5 574.9C436.5 574.9 438.1 563.6 439.8 556.2C441.5 548.9 443.4 542.4 443.4 542.4C443.4 542.4 432.8 543.3 419.1 538.5C401.3 532.3 390.2 518.4 390.2 518.4L395 503Z" fill="#7B6DCF"/>
<path d="M443.3 542.5C443.3 542.5 440.8 551.5 440.1 554.7C439.4 557.9 438.6 561.9 438.6 561.9C438.6 561.9 470 531.2 476.8 523.7C483.6 516.2 495.7 502.9 495.4 491.2C495.1 479.5 492.8 476.9 492.8 476.9C492.8 476.9 494.2 484.4 491.5 492.1C487.7 502.8 471.9 516.7 464.4 523.7C458.2 529.6 443.3 542.5 443.3 542.5Z" fill="#6A5AC1"/>
<path d="M512.4 494.9C512.4 494.9 516.5 506.7 518.1 512.2C519.7 517.7 521.3 526.3 521.3 526.3L527.3 529.4C527.3 529.4 523 516.9 520.3 510C517.6 503.1 512.4 494.9 512.4 494.9Z" fill="#6A5AC1"/>
<path d="M515.8 534.3L515.3 538.6L518.5 541.4L514.4 542.2L512.7 546.1L510.6 542.4L506.3 542.1L509.2 538.9L508.3 534.8L512.1 536.5L515.8 534.3Z" fill="#FF6ED9"/>
<path d="M530.7 566.5C530.7 566.5 530.6 564.8 530.2 561.6L528.2 564L524.7 563.7L526.6 566.7L525.3 569.6C528.9 567.7 530.7 566.5 530.7 566.5Z" fill="#FF6ED9"/>
<path d="M447.4 488.6L449 491.4L450.3 488.4L453.5 487.7L451 485.6L451.4 482.4L449.4 483.6C448 485.1 446.6 486.7 445.2 488.4L447.4 488.6Z" fill="#FF6ED9"/>
<path d="M448 577.6L451.5 576.8L448.2 574.1L448.6 569.9L445 572.2L441.1 570.6L442.2 574.7L440.9 576.2C442.7 576.6 445.1 577.1 448 577.6Z" fill="#FF6ED9"/>
<path d="M498.4 563.7L500.8 564.4L502.7 562.7L502.8 565.2L505 566.5L502.7 567.4L502.1 569.8L500.5 567.9L498.1 568.1L499.4 566L498.4 563.7Z" fill="#FF6ED9"/>
<path d="M450.4 515.2L453.5 516L456 513.9L456.2 517.2L458.9 518.8L455.9 520L455.2 523.1L453.1 520.6L449.9 520.9L451.7 518.2L450.4 515.2Z" fill="#FF6ED9"/>
<path d="M560.1 523.1L559.8 523.3L556.7 522.5L558 525.5L556.3 528.2L559.5 527.9L561.5 530.4L562.2 527.3L562.8 527.1C562 525.8 561.1 524.5 560.1 523.1Z" fill="#FF6ED9"/>
<path d="M485.7 521.6L487.4 522L488.7 520.9L488.8 522.6L490.3 523.5L488.7 524.1L488.3 525.8L487.2 524.5L485.5 524.7L486.4 523.2L485.7 521.6Z" fill="#FF6ED9"/>
<path d="M427 532.9L428.4 531.9V530.2L429.8 531.2L431.4 530.6L430.9 532.3L432 533.7H430.2L429.2 535.1L428.7 533.4L427 532.9Z" fill="#FF6ED9"/>
<path d="M559.9 545.4L561.6 545.8L562.9 544.7L563 546.4L564.5 547.3L562.9 548L562.5 549.7L561.4 548.3L559.7 548.5L560.6 547L559.9 545.4Z" fill="#FF6ED9"/>
<path d="M485.7 467.9L487.4 468.4L488.7 467.2L488.8 469L490.3 469.9L488.7 470.5L488.3 472.2L487.2 470.9L485.5 471L486.4 469.5L485.7 467.9Z" fill="#FF6ED9"/>
<path d="M529.9 499.1L531.6 499.5L532.9 498.4L533 500.1L534.5 501L532.9 501.6L532.5 503.3L531.4 502L529.6 502.2L530.6 500.7L529.9 499.1Z" fill="#FF6ED9"/>
<path d="M405.6 515.7L408.5 516.5L410.8 514.5L411 517.5L413.6 519.1L410.8 520.2L410.1 523.2L408.2 520.8L405.1 521.1L406.8 518.5L405.6 515.7Z" fill="#FF6ED9"/>
<path d="M467.6 546.1L472.8 550.1L478.9 548L476.8 554.1L480.6 559.3L474.2 559.2L470.4 564.5L468.5 558.3L462.4 556.3L467.7 552.6L467.6 546.1Z" fill="#FF6ED9"/>
<path d="M470 482.4L474.1 485.5L479 483.9L477.3 488.7L480.4 492.9L475.2 492.8L472.2 496.9L470.7 492L465.9 490.5L470.1 487.5L470 482.4Z" fill="#FF6ED9"/>
<path d="M539.1 525.2L536.3 520.9L534.6 525.7L529.6 527L533.6 530.2L533.5 532.7C534.2 533.1 534.9 533.4 535.5 533.8L537.6 532.4L542.4 534.3L541 529.4L544.3 525.4L539.1 525.2Z" fill="#FF6ED9"/>
<path d="M506.9 482.4L512.6 479.3L518.4 482.2L517.2 475.8L518 475C515.5 472.9 512.9 470.9 510.3 469.1L509.7 470.5L503.3 471.6L508 476L506.9 482.4Z" fill="#FF6ED9"/>
<path d="M944.5 549.8C944.5 549.8 940.7 586.8 955.5 630.1C970.3 673.4 988.3 713.7 988.3 713.7H1003.6C1003.6 713.7 1006.1 675.6 1005.6 650.6C1005.1 625.6 1004.8 606.8 1004.8 606.8C1004.8 606.8 1016.7 618.4 1023.3 622.6C1029.9 626.8 1037.7 626.5 1046.8 624.7C1055.9 622.9 1100.7 611.8 1100.7 611.8L1099.7 599.3C1099.7 599.3 1080.2 593 1068.1 590.8C1056 588.6 1042.3 584.3 1042.3 584.3C1042.3 584.3 1036.4 567.6 1029.4 553.7C1022.4 539.8 1019.6 535.3 1019.6 535.3L944.5 549.8Z" fill="#7B6DCF"/>
<path d="M1004.8 606.8C1004.8 606.8 995.9 599.6 989.9 593.1C983.9 586.6 979.3 579.5 979.3 579.5C979.3 579.5 985.7 594.4 993.9 602.5C1001.5 610.1 1004.9 612 1004.9 612L1004.8 606.8Z" fill="#6A5AC1"/>
<path d="M997.3 630.4L989.1 623.1L999.5 623.5L997.3 630.4Z" fill="#FF6ED9"/>
<path d="M975.9 609.4L979.9 603L980.8 610.1L975.9 609.4Z" fill="#FF6ED9"/>
<path d="M997.1 699.5L994.3 692.4L1000.6 695.9L997.1 699.5Z" fill="#FF6ED9"/>
<path d="M1011.1 564.4L1012.9 572.3L1005.4 569.7L1011.1 564.4Z" fill="#FF6ED9"/>
<path d="M979.8 678.1L984.6 677.5L982.6 681.9L979.8 678.1Z" fill="#FF6ED9"/>
<path d="M1031.3 596.1L1036.2 595.4L1034.1 599.9L1031.3 596.1Z" fill="#FF6ED9"/>
<path d="M1051.2 604.3L1054.8 598.1L1058.4 603.8L1051.2 604.3Z" fill="#FF6ED9"/>
<path d="M1089.3 607.9L1094.3 603.2L1097.1 607.5L1089.3 607.9Z" fill="#FF6ED9"/>
<path d="M982.5 561L983.2 556.1L986.9 559.4L982.5 561Z" fill="#FF6ED9"/>
<path d="M967.7 640L975.8 648.2L964.8 650.7L967.7 640Z" fill="#FF6ED9"/>
<path d="M1013.2 590L1009.4 600.9L1002.3 592.1L1013.2 590Z" fill="#FF6ED9"/>
<path d="M1068.8 595.4L1078.1 604.1L1067.7 608.7L1068.8 595.4Z" fill="#FF6ED9"/>
<path d="M961.5 574L968.5 582.7L971 574H961.5Z" fill="#FF6ED9"/>
<path d="M1029.4 553.7C1029.2 553.2 1028.9 552.8 1028.7 552.3L1025.5 549.9L1026.1 567.1L1033.2 561.6C1032 559 1030.7 556.3 1029.4 553.7Z" fill="#FF6ED9"/>
<path d="M944.1 562.3C944.1 564.6 944.2 567.1 944.3 569.9L949 570.6L944.5 562L944.1 562.3Z" fill="#FF6ED9"/>
<path d="M1005.6 659.8C1005.6 656.6 1005.6 653.5 1005.5 650.6C1005.5 650 1005.5 649.4 1005.5 648.8L990.1 653.7L1005.6 659.8Z" fill="#FF6ED9"/>
<path d="M1046.1 612L1034.2 620.1L1043.3 625.4C1044.4 625.2 1045.5 625 1046.7 624.8C1047.6 624.6 1049 624.3 1050.6 624L1046.1 612Z" fill="#FF6ED9"/>
<path d="M950.6 613.6H961.2L951.6 593.8L948.7 605.7C949.4 608.3 950 610.9 950.6 613.6Z" fill="#FF6ED9"/>
<path d="M984.2 424.4C1000.33 424.4 1013.4 411.327 1013.4 395.2C1013.4 379.073 1000.33 366 984.2 366C968.073 366 955 379.073 955 395.2C955 411.327 968.073 424.4 984.2 424.4Z" fill="#8C503E"/>
<path d="M1100.5 611.8C1100.5 611.8 1103.1 622.2 1104.7 627.2C1106.3 632.1 1109.3 638.3 1111.7 638.4C1114.2 638.5 1114.8 629.3 1113.4 615.3C1112 601.3 1113.2 599.4 1105.1 599.5C1101.5 599.5 1099.6 599.3 1099.6 599.3L1100.5 611.8Z" fill="#4E3734"/>
<path d="M988.3 713.7C988.3 713.7 977.9 715.9 972.2 718.1C966.5 720.3 962.1 722.7 962.1 725.5C962.1 727.7 972.5 727 988.7 727C1005.3 727.1 1010 727.5 1007.1 719.1C1006.1 716.2 1003.6 713.6 1003.6 713.6H988.3V713.7Z" fill="#4E3734"/>
<path d="M930.1 356.6C930.1 356.6 927.7 349.5 928 345.6C928.3 341.7 929.5 335.7 929.7 332.5C929.9 329.3 929.7 322.8 932.5 322.6C935.3 322.4 937.4 326.5 937.3 330.9C937.2 335.3 942.3 345.4 940 350.6C937.7 355.8 936.6 358 936.6 358L930.1 356.6Z" fill="#8C503E"/>
<path d="M1101.1 439.2C1101.1 439.2 1108.2 436.8 1111.1 434.3C1114 431.8 1118.1 427.2 1120.6 425.1C1123.1 423 1128.4 419.2 1126.8 416.9C1125.2 414.6 1120.7 415.3 1117.2 418.1C1113.8 420.8 1102.6 422.8 1099.8 427.7C1097 432.6 1096 434.9 1096 434.9L1101.1 439.2Z" fill="#8C503E"/>
<path d="M924.3 354.8L940.8 358.6C940.8 358.6 939.2 398.8 940.5 404.3C942.3 411.5 972.3 435.3 972.3 435.3C972.3 435.3 1004.8 435.6 1015.3 439.6C1025.8 443.6 1036.8 450.9 1046.8 451.6C1056.8 452.3 1093.6 430.6 1093.6 430.6L1105.4 442.6C1105.4 442.6 1094.9 456.5 1087.6 463.4C1078.1 472.4 1062.6 484.9 1051.8 486.4C1041 487.9 1007.5 475.4 1007.5 475.4C1007.5 475.4 1015 501.4 1020.7 512.7C1026.5 524 1032 532.2 1032 532.2C1032 532.2 1006.1 547.7 984.2 552C962.3 556.3 937.5 552 937.5 552C937.5 552 930.7 533.7 936 504C941.3 474.3 945 467 945 467C945 467 918.7 431.3 914.5 416.7C910.3 402.1 924.3 354.8 924.3 354.8Z" fill="#FF6ED9"/>
<path d="M993.8 460.4C993.8 460.4 998.6 467.7 1002 470.7C1005.3 473.6 1007.6 475.4 1007.6 475.4L1012.7 491.8C1012.7 491.8 1003.4 484.9 999.9 478.1C996.2 471.2 993.8 460.4 993.8 460.4Z" fill="#FF5ED2"/>
<path d="M945 466.8C945 466.8 948.6 456.7 954.9 449.3C962.1 441 972.2 435.3 972.2 435.3L968.9 432.7C968.9 432.7 959.8 436.2 951.7 445.2C944.7 453 941.8 462.6 941.8 462.6L945 466.8Z" fill="#FF5ED2"/>
<path d="M1013.5 395.2C1013.5 379 1000.4 366 984.3 366C977.7 366 971.5 368.2 966.6 372C966.6 372 959.5 381.5 969.3 387.6C979.1 393.7 985.9 389.2 985.9 389.2C985.9 389.2 988.4 391.4 988.2 395.3C987.7 402.6 977.9 404.3 978.1 413.7C978.4 426.7 992.9 424.7 992.9 431.6C992.9 437.6 985.2 441.3 984.5 449.3C983.8 457.5 987.7 463.6 993.7 464.9C1013.3 469.2 1019.5 446.4 1020.5 440C1021.5 433.6 1019.1 421.2 1015.5 409.1C1014.4 405.2 1013.5 395.2 1013.5 395.2Z" fill="white"/>
<path d="M946.034 299.688L905.936 325.34L922.803 351.707L962.902 326.055L946.034 299.688Z" fill="#4F3D9D"/>
<path d="M942.1 298L945.7 299.6L958.8 325.7L923 350L903.3 354.8V323.6L942.1 298Z" fill="white"/>
<path d="M942.3 329.9L902.2 355.6L902.1 323.6L942.1 298L942.3 329.9Z" fill="#5441AF"/>
<path d="M942.1 298L945.9 299.8L946.1 300.4L942.1 298.9V298Z" fill="#4F3D9D"/>
<path d="M944.9 299.9L953.8 325.3L915.6 351.8L923 350L958.8 325.7L946.1 300.4L944.9 299.9Z" fill="#F7F7F7"/>
<path d="M935.5 348.3L936.2 341L939.1 339.1L939.9 342.1L935.5 348.3Z" fill="#8C503E"/>
<rect x="129.282" y="543.392" width="5" height="17" transform="rotate(136.798 129.282 543.392)" fill="#FFEFF0"/>
</g>
<path d="M462.53 227.99C469.783 227.99 476.527 229.577 482.76 232.75C488.993 235.923 493.98 240.4 497.72 246.18C501.46 251.96 503.33 258.59 503.33 266.07C503.33 274.343 501.177 281.653 496.87 288C492.677 294.347 486.897 299.22 479.53 302.62C472.163 306.02 464.003 307.72 455.05 307.72C443.603 307.72 433.573 305.51 424.96 301.09C416.46 296.67 409.83 290.097 405.07 281.37C400.31 272.643 397.93 261.933 397.93 249.24C397.93 235.64 400.65 223.853 406.09 213.88C411.643 203.907 419.35 196.313 429.21 191.1C439.183 185.887 450.743 183.28 463.89 183.28C471.03 183.28 477.83 184.13 484.29 185.83C490.75 187.417 496.247 189.683 500.78 192.63L486.33 220.68C480.437 216.487 473.24 214.39 464.74 214.39C457.827 214.39 452.103 216.147 447.57 219.66C443.15 223.06 440.26 228.047 438.9 234.62C445.133 230.2 453.01 227.99 462.53 227.99ZM452.33 280.01C455.957 280.01 458.903 278.933 461.17 276.78C463.437 274.627 464.57 271.68 464.57 267.94C464.57 264.2 463.437 261.253 461.17 259.1C458.903 256.833 455.957 255.7 452.33 255.7C448.703 255.7 445.757 256.833 443.49 259.1C441.223 261.253 440.09 264.2 440.09 267.94C440.09 271.68 441.223 274.627 443.49 276.78C445.757 278.933 448.703 280.01 452.33 280.01ZM564.213 307.72C553.673 307.72 544.323 305.283 536.163 300.41C528.116 295.423 521.769 288.283 517.123 278.99C512.589 269.583 510.323 258.42 510.323 245.5C510.323 232.58 512.589 221.473 517.123 212.18C521.769 202.773 528.116 195.633 536.163 190.76C544.323 185.773 553.673 183.28 564.213 183.28C574.753 183.28 584.046 185.773 592.093 190.76C600.253 195.633 606.599 202.773 611.133 212.18C615.779 221.473 618.103 232.58 618.103 245.5C618.103 258.42 615.779 269.583 611.133 278.99C606.599 288.283 600.253 295.423 592.093 300.41C584.046 305.283 574.753 307.72 564.213 307.72ZM564.213 275.59C573.279 275.59 577.813 265.56 577.813 245.5C577.813 225.44 573.279 215.41 564.213 215.41C555.146 215.41 550.613 225.44 550.613 245.5C550.613 265.56 555.146 275.59 564.213 275.59ZM681.918 307.72C671.378 307.72 662.028 305.283 653.868 300.41C645.821 295.423 639.474 288.283 634.828 278.99C630.294 269.583 628.028 258.42 628.028 245.5C628.028 232.58 630.294 221.473 634.828 212.18C639.474 202.773 645.821 195.633 653.868 190.76C662.028 185.773 671.378 183.28 681.918 183.28C692.458 183.28 701.751 185.773 709.798 190.76C717.958 195.633 724.304 202.773 728.838 212.18C733.484 221.473 735.808 232.58 735.808 245.5C735.808 258.42 733.484 269.583 728.838 278.99C724.304 288.283 717.958 295.423 709.798 300.41C701.751 305.283 692.458 307.72 681.918 307.72ZM681.918 275.59C690.984 275.59 695.518 265.56 695.518 245.5C695.518 225.44 690.984 215.41 681.918 215.41C672.851 215.41 668.318 225.44 668.318 245.5C668.318 265.56 672.851 275.59 681.918 275.59ZM799.623 307.72C789.083 307.72 779.733 305.283 771.573 300.41C763.526 295.423 757.179 288.283 752.533 278.99C747.999 269.583 745.733 258.42 745.733 245.5C745.733 232.58 747.999 221.473 752.533 212.18C757.179 202.773 763.526 195.633 771.573 190.76C779.733 185.773 789.083 183.28 799.623 183.28C810.163 183.28 819.456 185.773 827.503 190.76C835.663 195.633 842.009 202.773 846.543 212.18C851.189 221.473 853.513 232.58 853.513 245.5C853.513 258.42 851.189 269.583 846.543 278.99C842.009 288.283 835.663 295.423 827.503 300.41C819.456 305.283 810.163 307.72 799.623 307.72ZM799.623 275.59C808.689 275.59 813.223 265.56 813.223 245.5C813.223 225.44 808.689 215.41 799.623 215.41C790.556 215.41 786.023 225.44 786.023 245.5C786.023 265.56 790.556 275.59 799.623 275.59Z" fill="#534FD2"/>
<path d="M457.53 216.99C464.783 216.99 471.527 218.577 477.76 221.75C483.993 224.923 488.98 229.4 492.72 235.18C496.46 240.96 498.33 247.59 498.33 255.07C498.33 263.343 496.177 270.653 491.87 277C487.677 283.347 481.897 288.22 474.53 291.62C467.163 295.02 459.003 296.72 450.05 296.72C438.603 296.72 428.573 294.51 419.96 290.09C411.46 285.67 404.83 279.097 400.07 270.37C395.31 261.643 392.93 250.933 392.93 238.24C392.93 224.64 395.65 212.853 401.09 202.88C406.643 192.907 414.35 185.313 424.21 180.1C434.183 174.887 445.743 172.28 458.89 172.28C466.03 172.28 472.83 173.13 479.29 174.83C485.75 176.417 491.247 178.683 495.78 181.63L481.33 209.68C475.437 205.487 468.24 203.39 459.74 203.39C452.827 203.39 447.103 205.147 442.57 208.66C438.15 212.06 435.26 217.047 433.9 223.62C440.133 219.2 448.01 216.99 457.53 216.99ZM447.33 269.01C450.957 269.01 453.903 267.933 456.17 265.78C458.437 263.627 459.57 260.68 459.57 256.94C459.57 253.2 458.437 250.253 456.17 248.1C453.903 245.833 450.957 244.7 447.33 244.7C443.703 244.7 440.757 245.833 438.49 248.1C436.223 250.253 435.09 253.2 435.09 256.94C435.09 260.68 436.223 263.627 438.49 265.78C440.757 267.933 443.703 269.01 447.33 269.01ZM559.213 296.72C548.673 296.72 539.323 294.283 531.163 289.41C523.116 284.423 516.769 277.283 512.123 267.99C507.589 258.583 505.323 247.42 505.323 234.5C505.323 221.58 507.589 210.473 512.123 201.18C516.769 191.773 523.116 184.633 531.163 179.76C539.323 174.773 548.673 172.28 559.213 172.28C569.753 172.28 579.046 174.773 587.093 179.76C595.253 184.633 601.599 191.773 606.133 201.18C610.779 210.473 613.103 221.58 613.103 234.5C613.103 247.42 610.779 258.583 606.133 267.99C601.599 277.283 595.253 284.423 587.093 289.41C579.046 294.283 569.753 296.72 559.213 296.72ZM559.213 264.59C568.279 264.59 572.813 254.56 572.813 234.5C572.813 214.44 568.279 204.41 559.213 204.41C550.146 204.41 545.613 214.44 545.613 234.5C545.613 254.56 550.146 264.59 559.213 264.59ZM676.918 296.72C666.378 296.72 657.028 294.283 648.868 289.41C640.821 284.423 634.474 277.283 629.828 267.99C625.294 258.583 623.028 247.42 623.028 234.5C623.028 221.58 625.294 210.473 629.828 201.18C634.474 191.773 640.821 184.633 648.868 179.76C657.028 174.773 666.378 172.28 676.918 172.28C687.458 172.28 696.751 174.773 704.798 179.76C712.958 184.633 719.304 191.773 723.838 201.18C728.484 210.473 730.808 221.58 730.808 234.5C730.808 247.42 728.484 258.583 723.838 267.99C719.304 277.283 712.958 284.423 704.798 289.41C696.751 294.283 687.458 296.72 676.918 296.72ZM676.918 264.59C685.984 264.59 690.518 254.56 690.518 234.5C690.518 214.44 685.984 204.41 676.918 204.41C667.851 204.41 663.318 214.44 663.318 234.5C663.318 254.56 667.851 264.59 676.918 264.59ZM794.623 296.72C784.083 296.72 774.733 294.283 766.573 289.41C758.526 284.423 752.179 277.283 747.533 267.99C742.999 258.583 740.733 247.42 740.733 234.5C740.733 221.58 742.999 210.473 747.533 201.18C752.179 191.773 758.526 184.633 766.573 179.76C774.733 174.773 784.083 172.28 794.623 172.28C805.163 172.28 814.456 174.773 822.503 179.76C830.663 184.633 837.009 191.773 841.543 201.18C846.189 210.473 848.513 221.58 848.513 234.5C848.513 247.42 846.189 258.583 841.543 267.99C837.009 277.283 830.663 284.423 822.503 289.41C814.456 294.283 805.163 296.72 794.623 296.72ZM794.623 264.59C803.689 264.59 808.223 254.56 808.223 234.5C808.223 214.44 803.689 204.41 794.623 204.41C785.556 204.41 781.023 214.44 781.023 234.5C781.023 254.56 785.556 264.59 794.623 264.59Z" fill="white"/>
<path d="M191.16 198.94C194.24 198.94 196.94 199.58 199.26 200.86C201.58 202.1 203.36 203.86 204.6 206.14C205.88 208.42 206.52 211.06 206.52 214.06C206.52 217.14 205.76 219.88 204.24 222.28C202.76 224.64 200.68 226.48 198 227.8C195.32 229.08 192.28 229.72 188.88 229.72C183.24 229.72 178.8 227.92 175.56 224.32C172.36 220.68 170.76 215.36 170.76 208.36C170.76 201.88 172.16 196.72 174.96 192.88C177.8 189 182.14 186.46 187.98 185.26L203.34 182.2L204.6 190.24L191.04 192.94C187.36 193.66 184.62 194.86 182.82 196.54C181.06 198.22 180.02 200.6 179.7 203.68C181.1 202.16 182.78 201 184.74 200.2C186.7 199.36 188.84 198.94 191.16 198.94ZM188.94 222.46C191.34 222.46 193.26 221.68 194.7 220.12C196.18 218.56 196.92 216.58 196.92 214.18C196.92 211.74 196.18 209.8 194.7 208.36C193.26 206.92 191.34 206.2 188.94 206.2C186.5 206.2 184.54 206.92 183.06 208.36C181.58 209.8 180.84 211.74 180.84 214.18C180.84 216.62 181.6 218.62 183.12 220.18C184.64 221.7 186.58 222.46 188.94 222.46ZM227.991 229.48C224.591 229.48 221.531 228.78 218.811 227.38C216.131 225.94 214.031 223.96 212.511 221.44C210.991 218.92 210.231 216.06 210.231 212.86C210.231 209.66 210.991 206.8 212.511 204.28C214.031 201.76 216.131 199.8 218.811 198.4C221.531 196.96 224.591 196.24 227.991 196.24C231.391 196.24 234.431 196.96 237.111 198.4C239.791 199.8 241.891 201.76 243.411 204.28C244.931 206.8 245.691 209.66 245.691 212.86C245.691 216.06 244.931 218.92 243.411 221.44C241.891 223.96 239.791 225.94 237.111 227.38C234.431 228.78 231.391 229.48 227.991 229.48ZM227.991 221.8C230.391 221.8 232.351 221 233.871 219.4C235.431 217.76 236.211 215.58 236.211 212.86C236.211 210.14 235.431 207.98 233.871 206.38C232.351 204.74 230.391 203.92 227.991 203.92C225.591 203.92 223.611 204.74 222.051 206.38C220.491 207.98 219.711 210.14 219.711 212.86C219.711 215.58 220.491 217.76 222.051 219.4C223.611 221 225.591 221.8 227.991 221.8ZM282.62 196.72V229H273.26V204.4H263.06L262.76 210.1C262.6 214.34 262.2 217.86 261.56 220.66C260.92 223.46 259.88 225.66 258.44 227.26C257 228.86 255 229.66 252.44 229.66C251.08 229.66 249.46 229.42 247.58 228.94L248.06 221.26C248.7 221.34 249.16 221.38 249.44 221.38C250.84 221.38 251.88 220.88 252.56 219.88C253.28 218.84 253.76 217.54 254 215.98C254.24 214.38 254.42 212.28 254.54 209.68L255.02 196.72H282.62ZM323.001 212.98C323.001 213.1 322.941 213.94 322.821 215.5H298.401C298.841 217.5 299.881 219.08 301.521 220.24C303.161 221.4 305.201 221.98 307.641 221.98C309.321 221.98 310.801 221.74 312.081 221.26C313.401 220.74 314.621 219.94 315.741 218.86L320.721 224.26C317.681 227.74 313.241 229.48 307.401 229.48C303.761 229.48 300.541 228.78 297.741 227.38C294.941 225.94 292.781 223.96 291.261 221.44C289.741 218.92 288.981 216.06 288.981 212.86C288.981 209.7 289.721 206.86 291.201 204.34C292.721 201.78 294.781 199.8 297.381 198.4C300.021 196.96 302.961 196.24 306.201 196.24C309.361 196.24 312.221 196.92 314.781 198.28C317.341 199.64 319.341 201.6 320.781 204.16C322.261 206.68 323.001 209.62 323.001 212.98ZM306.261 203.32C304.141 203.32 302.361 203.92 300.921 205.12C299.481 206.32 298.601 207.96 298.281 210.04H314.181C313.861 208 312.981 206.38 311.541 205.18C310.101 203.94 308.341 203.32 306.261 203.32ZM361.556 212.98C361.556 213.1 361.496 213.94 361.376 215.5H336.956C337.396 217.5 338.436 219.08 340.076 220.24C341.716 221.4 343.756 221.98 346.196 221.98C347.876 221.98 349.356 221.74 350.636 221.26C351.956 220.74 353.176 219.94 354.296 218.86L359.276 224.26C356.236 227.74 351.796 229.48 345.956 229.48C342.316 229.48 339.096 228.78 336.296 227.38C333.496 225.94 331.336 223.96 329.816 221.44C328.296 218.92 327.536 216.06 327.536 212.86C327.536 209.7 328.276 206.86 329.756 204.34C331.276 201.78 333.336 199.8 335.936 198.4C338.576 196.96 341.516 196.24 344.756 196.24C347.916 196.24 350.776 196.92 353.336 198.28C355.896 199.64 357.896 201.6 359.336 204.16C360.816 206.68 361.556 209.62 361.556 212.98ZM344.816 203.32C342.696 203.32 340.916 203.92 339.476 205.12C338.036 206.32 337.156 207.96 336.836 210.04H352.736C352.416 208 351.536 206.38 350.096 205.18C348.656 203.94 346.896 203.32 344.816 203.32Z" fill="#534FD2"/>
<path d="M188.16 193.94C191.24 193.94 193.94 194.58 196.26 195.86C198.58 197.1 200.36 198.86 201.6 201.14C202.88 203.42 203.52 206.06 203.52 209.06C203.52 212.14 202.76 214.88 201.24 217.28C199.76 219.64 197.68 221.48 195 222.8C192.32 224.08 189.28 224.72 185.88 224.72C180.24 224.72 175.8 222.92 172.56 219.32C169.36 215.68 167.76 210.36 167.76 203.36C167.76 196.88 169.16 191.72 171.96 187.88C174.8 184 179.14 181.46 184.98 180.26L200.34 177.2L201.6 185.24L188.04 187.94C184.36 188.66 181.62 189.86 179.82 191.54C178.06 193.22 177.02 195.6 176.7 198.68C178.1 197.16 179.78 196 181.74 195.2C183.7 194.36 185.84 193.94 188.16 193.94ZM185.94 217.46C188.34 217.46 190.26 216.68 191.7 215.12C193.18 213.56 193.92 211.58 193.92 209.18C193.92 206.74 193.18 204.8 191.7 203.36C190.26 201.92 188.34 201.2 185.94 201.2C183.5 201.2 181.54 201.92 180.06 203.36C178.58 204.8 177.84 206.74 177.84 209.18C177.84 211.62 178.6 213.62 180.12 215.18C181.64 216.7 183.58 217.46 185.94 217.46ZM224.991 224.48C221.591 224.48 218.531 223.78 215.811 222.38C213.131 220.94 211.031 218.96 209.511 216.44C207.991 213.92 207.231 211.06 207.231 207.86C207.231 204.66 207.991 201.8 209.511 199.28C211.031 196.76 213.131 194.8 215.811 193.4C218.531 191.96 221.591 191.24 224.991 191.24C228.391 191.24 231.431 191.96 234.111 193.4C236.791 194.8 238.891 196.76 240.411 199.28C241.931 201.8 242.691 204.66 242.691 207.86C242.691 211.06 241.931 213.92 240.411 216.44C238.891 218.96 236.791 220.94 234.111 222.38C231.431 223.78 228.391 224.48 224.991 224.48ZM224.991 216.8C227.391 216.8 229.351 216 230.871 214.4C232.431 212.76 233.211 210.58 233.211 207.86C233.211 205.14 232.431 202.98 230.871 201.38C229.351 199.74 227.391 198.92 224.991 198.92C222.591 198.92 220.611 199.74 219.051 201.38C217.491 202.98 216.711 205.14 216.711 207.86C216.711 210.58 217.491 212.76 219.051 214.4C220.611 216 222.591 216.8 224.991 216.8ZM279.62 191.72V224H270.26V199.4H260.06L259.76 205.1C259.6 209.34 259.2 212.86 258.56 215.66C257.92 218.46 256.88 220.66 255.44 222.26C254 223.86 252 224.66 249.44 224.66C248.08 224.66 246.46 224.42 244.58 223.94L245.06 216.26C245.7 216.34 246.16 216.38 246.44 216.38C247.84 216.38 248.88 215.88 249.56 214.88C250.28 213.84 250.76 212.54 251 210.98C251.24 209.38 251.42 207.28 251.54 204.68L252.02 191.72H279.62ZM320.001 207.98C320.001 208.1 319.941 208.94 319.821 210.5H295.401C295.841 212.5 296.881 214.08 298.521 215.24C300.161 216.4 302.201 216.98 304.641 216.98C306.321 216.98 307.801 216.74 309.081 216.26C310.401 215.74 311.621 214.94 312.741 213.86L317.721 219.26C314.681 222.74 310.241 224.48 304.401 224.48C300.761 224.48 297.541 223.78 294.741 222.38C291.941 220.94 289.781 218.96 288.261 216.44C286.741 213.92 285.981 211.06 285.981 207.86C285.981 204.7 286.721 201.86 288.201 199.34C289.721 196.78 291.781 194.8 294.381 193.4C297.021 191.96 299.961 191.24 303.201 191.24C306.361 191.24 309.221 191.92 311.781 193.28C314.341 194.64 316.341 196.6 317.781 199.16C319.261 201.68 320.001 204.62 320.001 207.98ZM303.261 198.32C301.141 198.32 299.361 198.92 297.921 200.12C296.481 201.32 295.601 202.96 295.281 205.04H311.181C310.861 203 309.981 201.38 308.541 200.18C307.101 198.94 305.341 198.32 303.261 198.32ZM358.556 207.98C358.556 208.1 358.496 208.94 358.376 210.5H333.956C334.396 212.5 335.436 214.08 337.076 215.24C338.716 216.4 340.756 216.98 343.196 216.98C344.876 216.98 346.356 216.74 347.636 216.26C348.956 215.74 350.176 214.94 351.296 213.86L356.276 219.26C353.236 222.74 348.796 224.48 342.956 224.48C339.316 224.48 336.096 223.78 333.296 222.38C330.496 220.94 328.336 218.96 326.816 216.44C325.296 213.92 324.536 211.06 324.536 207.86C324.536 204.7 325.276 201.86 326.756 199.34C328.276 196.78 330.336 194.8 332.936 193.4C335.576 191.96 338.516 191.24 341.756 191.24C344.916 191.24 347.776 191.92 350.336 193.28C352.896 194.64 354.896 196.6 356.336 199.16C357.816 201.68 358.556 204.62 358.556 207.98ZM341.816 198.32C339.696 198.32 337.916 198.92 336.476 200.12C335.036 201.32 334.156 202.96 333.836 205.04H349.736C349.416 203 348.536 201.38 347.096 200.18C345.656 198.94 343.896 198.32 341.816 198.32Z" fill="white"/>
<path d="M903.72 274.76H898.86V287H889.5V254.72H898.86V267.26H903.9L912.66 254.72H922.62L911.34 270.2L923.4 287H912.36L903.72 274.76ZM927.996 254.72H937.296V267.32H951.336V254.72H960.696V287H951.336V274.94H937.296V287H927.996V254.72ZM969.656 254.72H978.956V273.92L994.676 254.72H1003.26V287H993.956V267.8L978.296 287H969.656V254.72ZM1038.11 262.4H1021.55V287H1012.25V254.72H1038.11V262.4Z" fill="#534FD2"/>
<path d="M900.72 269.76H895.86V282H886.5V249.72H895.86V262.26H900.9L909.66 249.72H919.62L908.34 265.2L920.4 282H909.36L900.72 269.76ZM924.996 249.72H934.296V262.32H948.336V249.72H957.696V282H948.336V269.94H934.296V282H924.996V249.72ZM966.656 249.72H975.956V268.92L991.676 249.72H1000.26V282H990.956V262.8L975.296 282H966.656V249.72ZM1035.11 257.4H1018.55V282H1009.25V249.72H1035.11V257.4Z" fill="white"/>
<path d="M432.206 128.5V146H428.981V139.4C427.331 140.017 425.765 140.325 424.281 140.325C422.048 140.325 420.323 139.792 419.106 138.725C417.906 137.642 417.306 136.092 417.306 134.075V128.5H420.531V133.725C420.531 134.958 420.89 135.9 421.606 136.55C422.323 137.2 423.348 137.525 424.681 137.525C426.198 137.525 427.631 137.217 428.981 136.6V128.5H432.206ZM437.136 128.5H440.336V140.925L449.736 128.5H452.761V146H449.561V133.6L440.161 146H437.136V128.5ZM470.368 131.25H464.568V146H461.343V131.25H455.568V128.5H470.368V131.25ZM483.892 141.95H475.142L473.417 146H470.067L477.942 128.5H481.142L489.042 146H485.642L483.892 141.95ZM482.817 139.4L479.517 131.75L476.242 139.4H482.817ZM491.75 128.5H494.95V140.925L504.35 128.5H507.375V146H504.175V133.6L494.775 146H491.75V128.5ZM499.525 127.325C498.025 127.325 496.892 127.017 496.125 126.4C495.375 125.783 494.992 124.883 494.975 123.7H497.25C497.267 124.317 497.467 124.792 497.85 125.125C498.234 125.458 498.792 125.625 499.525 125.625C500.242 125.625 500.8 125.458 501.2 125.125C501.617 124.792 501.834 124.317 501.85 123.7H504.1C504.084 124.867 503.684 125.767 502.9 126.4C502.134 127.017 501.009 127.325 499.525 127.325ZM524.982 131.25H519.182V146H515.957V131.25H510.182V128.5H524.982V131.25ZM540.91 143.275V146H527.785V128.5H540.56V131.225H531.035V135.775H539.485V138.45H531.035V143.275H540.91ZM559.492 146.25C557.726 146.25 556.126 145.867 554.692 145.1C553.276 144.317 552.159 143.242 551.342 141.875C550.542 140.508 550.142 138.967 550.142 137.25C550.142 135.533 550.551 133.992 551.367 132.625C552.184 131.258 553.301 130.192 554.717 129.425C556.151 128.642 557.751 128.25 559.517 128.25C560.951 128.25 562.259 128.5 563.442 129C564.626 129.5 565.626 130.225 566.442 131.175L564.342 133.15C563.076 131.783 561.517 131.1 559.667 131.1C558.467 131.1 557.392 131.367 556.442 131.9C555.492 132.417 554.751 133.142 554.217 134.075C553.684 135.008 553.417 136.067 553.417 137.25C553.417 138.433 553.684 139.492 554.217 140.425C554.751 141.358 555.492 142.092 556.442 142.625C557.392 143.142 558.467 143.4 559.667 143.4C561.517 143.4 563.076 142.708 564.342 141.325L566.442 143.325C565.626 144.275 564.617 145 563.417 145.5C562.234 146 560.926 146.25 559.492 146.25ZM591.394 128.5L583.794 142.625C583.127 143.875 582.327 144.817 581.394 145.45C580.477 146.067 579.477 146.375 578.394 146.375C577.527 146.375 576.669 146.192 575.819 145.825L576.619 143.275C577.302 143.492 577.869 143.6 578.319 143.6C579.369 143.6 580.236 143.058 580.919 141.975L581.194 141.55L574.219 128.5H577.694L582.869 138.775L588.194 128.5H591.394ZM610.736 143.25V149.725H607.736V146H594.311V149.725H591.286L591.311 143.25H592.061C593.161 143.2 593.927 142.392 594.361 140.825C594.811 139.242 595.086 136.983 595.186 134.05L595.386 128.5H608.211V143.25H610.736ZM598.036 134.35C597.952 136.617 597.769 138.508 597.486 140.025C597.202 141.525 596.752 142.6 596.136 143.25H605.011V131.25H598.161L598.036 134.35ZM621.896 146.25C620.112 146.25 618.504 145.867 617.071 145.1C615.637 144.317 614.512 143.242 613.696 141.875C612.879 140.492 612.471 138.95 612.471 137.25C612.471 135.55 612.879 134.017 613.696 132.65C614.512 131.267 615.637 130.192 617.071 129.425C618.504 128.642 620.112 128.25 621.896 128.25C623.679 128.25 625.287 128.642 626.721 129.425C628.154 130.192 629.279 131.258 630.096 132.625C630.912 133.992 631.321 135.533 631.321 137.25C631.321 138.967 630.912 140.508 630.096 141.875C629.279 143.242 628.154 144.317 626.721 145.1C625.287 145.867 623.679 146.25 621.896 146.25ZM621.896 143.4C623.062 143.4 624.112 143.142 625.046 142.625C625.979 142.092 626.712 141.358 627.246 140.425C627.779 139.475 628.046 138.417 628.046 137.25C628.046 136.083 627.779 135.033 627.246 134.1C626.712 133.15 625.979 132.417 625.046 131.9C624.112 131.367 623.062 131.1 621.896 131.1C620.729 131.1 619.679 131.367 618.746 131.9C617.812 132.417 617.079 133.15 616.546 134.1C616.012 135.033 615.746 136.083 615.746 137.25C615.746 138.417 616.012 139.475 616.546 140.425C617.079 141.358 617.812 142.092 618.746 142.625C619.679 143.142 620.729 143.4 621.896 143.4ZM646.439 136.9C647.556 137.2 648.406 137.717 648.989 138.45C649.572 139.167 649.864 140.067 649.864 141.15C649.864 142.683 649.297 143.875 648.164 144.725C647.031 145.575 645.389 146 643.239 146H634.939V128.5H642.764C644.731 128.5 646.264 128.892 647.364 129.675C648.464 130.458 649.014 131.567 649.014 133C649.014 133.917 648.789 134.708 648.339 135.375C647.906 136.042 647.272 136.55 646.439 136.9ZM638.139 135.975H642.489C643.539 135.975 644.339 135.767 644.889 135.35C645.439 134.933 645.714 134.317 645.714 133.5C645.714 132.683 645.439 132.067 644.889 131.65C644.339 131.217 643.539 131 642.489 131H638.139V135.975ZM643.139 143.5C645.439 143.5 646.589 142.633 646.589 140.9C646.589 139.2 645.439 138.35 643.139 138.35H638.139V143.5H643.139ZM661.666 146.25C659.883 146.25 658.275 145.867 656.841 145.1C655.408 144.317 654.283 143.242 653.466 141.875C652.65 140.492 652.241 138.95 652.241 137.25C652.241 135.55 652.65 134.017 653.466 132.65C654.283 131.267 655.408 130.192 656.841 129.425C658.275 128.642 659.883 128.25 661.666 128.25C663.45 128.25 665.058 128.642 666.491 129.425C667.925 130.192 669.05 131.258 669.866 132.625C670.683 133.992 671.091 135.533 671.091 137.25C671.091 138.967 670.683 140.508 669.866 141.875C669.05 143.242 667.925 144.317 666.491 145.1C665.058 145.867 663.45 146.25 661.666 146.25ZM661.666 143.4C662.833 143.4 663.883 143.142 664.816 142.625C665.75 142.092 666.483 141.358 667.016 140.425C667.55 139.475 667.816 138.417 667.816 137.25C667.816 136.083 667.55 135.033 667.016 134.1C666.483 133.15 665.75 132.417 664.816 131.9C663.883 131.367 662.833 131.1 661.666 131.1C660.5 131.1 659.45 131.367 658.516 131.9C657.583 132.417 656.85 133.15 656.316 134.1C655.783 135.033 655.516 136.083 655.516 137.25C655.516 138.417 655.783 139.475 656.316 140.425C656.85 141.358 657.583 142.092 658.516 142.625C659.45 143.142 660.5 143.4 661.666 143.4ZM689.146 128.5V146H685.946V131.25H679.046L678.896 135.625C678.813 138.075 678.613 140.067 678.296 141.6C677.979 143.117 677.471 144.275 676.771 145.075C676.071 145.858 675.104 146.25 673.871 146.25C673.438 146.25 672.846 146.167 672.096 146L672.321 143.175C672.538 143.242 672.788 143.275 673.071 143.275C674.088 143.275 674.804 142.675 675.221 141.475C675.654 140.258 675.921 138.35 676.021 135.75L676.271 128.5H689.146ZM702.144 134.425C704.244 134.425 705.852 134.9 706.969 135.85C708.102 136.783 708.669 138.175 708.669 140.025C708.669 141.958 708.052 143.442 706.819 144.475C705.586 145.492 703.852 146 701.619 146H694.094V128.5H697.294V134.425H702.144ZM701.469 143.5C702.736 143.5 703.711 143.208 704.394 142.625C705.077 142.042 705.419 141.192 705.419 140.075C705.419 137.958 704.102 136.9 701.469 136.9H697.294V143.5H701.469ZM720.039 146.25C718.272 146.25 716.672 145.867 715.239 145.1C713.822 144.317 712.706 143.242 711.889 141.875C711.089 140.508 710.689 138.967 710.689 137.25C710.689 135.533 711.097 133.992 711.914 132.625C712.731 131.258 713.847 130.192 715.264 129.425C716.697 128.642 718.297 128.25 720.064 128.25C721.497 128.25 722.806 128.5 723.989 129C725.172 129.5 726.172 130.225 726.989 131.175L724.889 133.15C723.622 131.783 722.064 131.1 720.214 131.1C719.014 131.1 717.939 131.367 716.989 131.9C716.039 132.417 715.297 133.142 714.764 134.075C714.231 135.008 713.964 136.067 713.964 137.25C713.964 138.433 714.231 139.492 714.764 140.425C715.297 141.358 716.039 142.092 716.989 142.625C717.939 143.142 719.014 143.4 720.214 143.4C722.064 143.4 723.622 142.708 724.889 141.325L726.989 143.325C726.172 144.275 725.164 145 723.964 145.5C722.781 146 721.472 146.25 720.039 146.25ZM742.511 131.25H736.711V146H733.486V131.25H727.711V128.5H742.511V131.25ZM756.839 136.9C757.956 137.2 758.806 137.717 759.389 138.45C759.973 139.167 760.264 140.067 760.264 141.15C760.264 142.683 759.698 143.875 758.564 144.725C757.431 145.575 755.789 146 753.639 146H745.339V128.5H753.164C755.131 128.5 756.664 128.892 757.764 129.675C758.864 130.458 759.414 131.567 759.414 133C759.414 133.917 759.189 134.708 758.739 135.375C758.306 136.042 757.673 136.55 756.839 136.9ZM748.539 135.975H752.889C753.939 135.975 754.739 135.767 755.289 135.35C755.839 134.933 756.114 134.317 756.114 133.5C756.114 132.683 755.839 132.067 755.289 131.65C754.739 131.217 753.939 131 752.889 131H748.539V135.975ZM753.539 143.5C755.839 143.5 756.989 142.633 756.989 140.9C756.989 139.2 755.839 138.35 753.539 138.35H748.539V143.5H753.539ZM763.992 128.5H767.192V140.925L776.592 128.5H779.617V146H776.417V133.6L767.017 146H763.992V128.5ZM797.648 143.275V146H784.523V128.5H797.298V131.225H787.773V135.775H796.223V138.45H787.773V143.275H797.648ZM817.346 146L817.321 134.4L811.571 144H810.121L804.371 134.55V146H801.296V128.5H803.971L810.896 140.075L817.746 128.5H820.396L820.446 146H817.346Z" fill="#1C2A39"/>
<g filter="url(#filter1_d_247_2)">
<rect x="1223" y="421" width="116" height="255" fill="#EEECEC"/>
</g>
<rect x="1202" y="412" width="137" height="273" fill="#FF8FE6"/>
<path d="M1223 659H1277" stroke="#1C2A39" stroke-width="2"/>
<path d="M1271 653L1278 659L1271 665" stroke="#1C2A39" stroke-width="2"/>
<path d="M1227.1 567.776H1223.07V565.4H1234.05V567.776H1230.02V578H1227.1V567.776ZM1241.55 578.216C1240.24 578.216 1239.06 577.934 1238 577.37C1236.96 576.806 1236.14 576.032 1235.54 575.048C1234.95 574.052 1234.65 572.936 1234.65 571.7C1234.65 570.464 1234.95 569.354 1235.54 568.37C1236.14 567.374 1236.96 566.594 1238 566.03C1239.06 565.466 1240.24 565.184 1241.55 565.184C1242.86 565.184 1244.03 565.466 1245.08 566.03C1246.12 566.594 1246.94 567.374 1247.54 568.37C1248.14 569.354 1248.44 570.464 1248.44 571.7C1248.44 572.936 1248.14 574.052 1247.54 575.048C1246.94 576.032 1246.12 576.806 1245.08 577.37C1244.03 577.934 1242.86 578.216 1241.55 578.216ZM1241.55 575.732C1242.29 575.732 1242.96 575.564 1243.56 575.228C1244.16 574.88 1244.63 574.4 1244.97 573.788C1245.32 573.176 1245.49 572.48 1245.49 571.7C1245.49 570.92 1245.32 570.224 1244.97 569.612C1244.63 569 1244.16 568.526 1243.56 568.19C1242.96 567.842 1242.29 567.668 1241.55 567.668C1240.8 567.668 1240.13 567.842 1239.53 568.19C1238.93 568.526 1238.46 569 1238.11 569.612C1237.77 570.224 1237.61 570.92 1237.61 571.7C1237.61 572.48 1237.77 573.176 1238.11 573.788C1238.46 574.4 1238.93 574.88 1239.53 575.228C1240.13 575.564 1240.8 575.732 1241.55 575.732ZM1262.19 565.4V578H1259.29V567.776H1253.6V578H1250.7V565.4H1262.19ZM1228.56 587.4V600H1225.65V589.74H1223.13V587.4H1228.56ZM1236.15 600.216C1235.11 600.216 1234.18 599.958 1233.36 599.442C1232.54 598.926 1231.9 598.182 1231.43 597.21C1230.98 596.226 1230.75 595.056 1230.75 593.7C1230.75 592.344 1230.98 591.18 1231.43 590.208C1231.9 589.224 1232.54 588.474 1233.36 587.958C1234.18 587.442 1235.11 587.184 1236.15 587.184C1237.19 587.184 1238.12 587.442 1238.94 587.958C1239.76 588.474 1240.39 589.224 1240.85 590.208C1241.32 591.18 1241.55 592.344 1241.55 593.7C1241.55 595.056 1241.32 596.226 1240.85 597.21C1240.39 598.182 1239.76 598.926 1238.94 599.442C1238.12 599.958 1237.19 600.216 1236.15 600.216ZM1236.15 597.75C1236.92 597.75 1237.52 597.42 1237.95 596.76C1238.39 596.1 1238.62 595.08 1238.62 593.7C1238.62 592.32 1238.39 591.3 1237.95 590.64C1237.52 589.98 1236.92 589.65 1236.15 589.65C1235.39 589.65 1234.79 589.98 1234.35 590.64C1233.92 591.3 1233.7 592.32 1233.7 593.7C1233.7 595.08 1233.92 596.1 1234.35 596.76C1234.79 597.42 1235.39 597.75 1236.15 597.75ZM1248.37 600.216C1247.32 600.216 1246.39 599.958 1245.58 599.442C1244.76 598.926 1244.12 598.182 1243.65 597.21C1243.2 596.226 1242.97 595.056 1242.97 593.7C1242.97 592.344 1243.2 591.18 1243.65 590.208C1244.12 589.224 1244.76 588.474 1245.58 587.958C1246.39 587.442 1247.32 587.184 1248.37 587.184C1249.41 587.184 1250.34 587.442 1251.16 587.958C1251.97 588.474 1252.61 589.224 1253.07 590.208C1253.53 591.18 1253.77 592.344 1253.77 593.7C1253.77 595.056 1253.53 596.226 1253.07 597.21C1252.61 598.182 1251.97 598.926 1251.16 599.442C1250.34 599.958 1249.41 600.216 1248.37 600.216ZM1248.37 597.75C1249.14 597.75 1249.74 597.42 1250.17 596.76C1250.61 596.1 1250.83 595.08 1250.83 593.7C1250.83 592.32 1250.61 591.3 1250.17 590.64C1249.74 589.98 1249.14 589.65 1248.37 589.65C1247.61 589.65 1247.01 589.98 1246.57 590.64C1246.14 591.3 1245.92 592.32 1245.92 593.7C1245.92 595.08 1246.14 596.1 1246.57 596.76C1247.01 597.42 1247.61 597.75 1248.37 597.75ZM1229.44 616.924H1227.43V622H1224.53V609.4H1227.43V614.494H1229.52L1232.83 609.4H1235.91L1231.78 615.484L1236.03 622H1232.72L1229.44 616.924ZM1248.95 609.4V622H1246.04V616.834H1240.31V622H1237.4V609.4H1240.31V614.368H1246.04V609.4H1248.95ZM1252.11 609.4H1255.01V617.608L1261.02 609.4H1263.76V622H1260.88V613.81L1254.86 622H1252.11V609.4ZM1275.77 611.776H1269.77L1269.79 622H1266.89V609.4H1275.79L1275.77 611.776ZM1233.12 641.624V644H1223.59V642.11L1228.45 637.52C1228.97 637.028 1229.32 636.608 1229.5 636.26C1229.68 635.9 1229.77 635.546 1229.77 635.198C1229.77 634.694 1229.59 634.31 1229.25 634.046C1228.91 633.77 1228.41 633.632 1227.75 633.632C1227.2 633.632 1226.7 633.74 1226.26 633.956C1225.81 634.16 1225.44 634.472 1225.14 634.892L1223.02 633.524C1223.51 632.792 1224.19 632.222 1225.05 631.814C1225.92 631.394 1226.91 631.184 1228.02 631.184C1228.96 631.184 1229.77 631.34 1230.47 631.652C1231.18 631.952 1231.72 632.384 1232.11 632.948C1232.5 633.5 1232.7 634.154 1232.7 634.91C1232.7 635.594 1232.56 636.236 1232.27 636.836C1231.98 637.436 1231.42 638.12 1230.6 638.888L1227.7 641.624H1233.12ZM1239.68 644.216C1238.64 644.216 1237.71 643.958 1236.89 643.442C1236.08 642.926 1235.44 642.182 1234.97 641.21C1234.51 640.226 1234.28 639.056 1234.28 637.7C1234.28 636.344 1234.51 635.18 1234.97 634.208C1235.44 633.224 1236.08 632.474 1236.89 631.958C1237.71 631.442 1238.64 631.184 1239.68 631.184C1240.73 631.184 1241.66 631.442 1242.47 631.958C1243.29 632.474 1243.93 633.224 1244.38 634.208C1244.85 635.18 1245.08 636.344 1245.08 637.7C1245.08 639.056 1244.85 640.226 1244.38 641.21C1243.93 642.182 1243.29 642.926 1242.47 643.442C1241.66 643.958 1240.73 644.216 1239.68 644.216ZM1239.68 641.75C1240.45 641.75 1241.05 641.42 1241.48 640.76C1241.93 640.1 1242.15 639.08 1242.15 637.7C1242.15 636.32 1241.93 635.3 1241.48 634.64C1241.05 633.98 1240.45 633.65 1239.68 633.65C1238.93 633.65 1238.33 633.98 1237.88 634.64C1237.45 635.3 1237.24 636.32 1237.24 637.7C1237.24 639.08 1237.45 640.1 1237.88 640.76C1238.33 641.42 1238.93 641.75 1239.68 641.75ZM1255.81 641.624V644H1246.29V642.11L1251.15 637.52C1251.66 637.028 1252.01 636.608 1252.19 636.26C1252.37 635.9 1252.46 635.546 1252.46 635.198C1252.46 634.694 1252.29 634.31 1251.94 634.046C1251.6 633.77 1251.11 633.632 1250.45 633.632C1249.89 633.632 1249.4 633.74 1248.95 633.956C1248.51 634.16 1248.14 634.472 1247.84 634.892L1245.71 633.524C1246.2 632.792 1246.88 632.222 1247.75 631.814C1248.61 631.394 1249.6 631.184 1250.72 631.184C1251.65 631.184 1252.47 631.34 1253.16 631.652C1253.87 631.952 1254.42 632.384 1254.8 632.948C1255.2 633.5 1255.4 634.154 1255.4 634.91C1255.4 635.594 1255.25 636.236 1254.96 636.836C1254.68 637.436 1254.12 638.12 1253.29 638.888L1250.39 641.624H1255.81ZM1262.38 644.216C1261.33 644.216 1260.4 643.958 1259.59 643.442C1258.77 642.926 1258.13 642.182 1257.66 641.21C1257.21 640.226 1256.98 639.056 1256.98 637.7C1256.98 636.344 1257.21 635.18 1257.66 634.208C1258.13 633.224 1258.77 632.474 1259.59 631.958C1260.4 631.442 1261.33 631.184 1262.38 631.184C1263.42 631.184 1264.35 631.442 1265.17 631.958C1265.98 632.474 1266.62 633.224 1267.08 634.208C1267.54 635.18 1267.78 636.344 1267.78 637.7C1267.78 639.056 1267.54 640.226 1267.08 641.21C1266.62 642.182 1265.98 642.926 1265.17 643.442C1264.35 643.958 1263.42 644.216 1262.38 644.216ZM1262.38 641.75C1263.15 641.75 1263.75 641.42 1264.18 640.76C1264.62 640.1 1264.84 639.08 1264.84 637.7C1264.84 636.32 1264.62 635.3 1264.18 634.64C1263.75 633.98 1263.15 633.65 1262.38 633.65C1261.62 633.65 1261.02 633.98 1260.58 634.64C1260.15 635.3 1259.93 636.32 1259.93 637.7C1259.93 639.08 1260.15 640.1 1260.58 640.76C1261.02 641.42 1261.62 641.75 1262.38 641.75Z" fill="#1C2A39"/>
<g filter="url(#filter2_d_247_2)">
<rect x="1136" y="142" width="109" height="185" fill="#EEECEC"/>
</g>
<rect x="1116" y="132" width="149" height="204" fill="#9E98DC"/>
<path d="M1136 310H1190" stroke="#1C2A39" stroke-width="2"/>
<path d="M1184 304L1191 310L1184 316" stroke="#1C2A39" stroke-width="2"/>
<path d="M1147.92 238.4V251H1145.04V246.464C1143.94 246.86 1142.93 247.058 1141.99 247.058C1140.3 247.058 1139.01 246.656 1138.11 245.852C1137.21 245.036 1136.76 243.866 1136.76 242.342V238.4H1139.64V242.018C1139.64 242.882 1139.86 243.536 1140.32 243.98C1140.79 244.412 1141.46 244.628 1142.34 244.628C1143.3 244.628 1144.2 244.442 1145.04 244.07V238.4H1147.92ZM1151.05 238.4H1153.95V246.608L1159.96 238.4H1162.69V251H1159.81V242.81L1153.8 251H1151.05V238.4ZM1175.46 240.776H1171.43V251H1168.55V240.776H1164.54V238.4H1175.46V240.776ZM1185.19 248.3H1179.34L1178.23 251H1175.24L1180.85 238.4H1183.73L1189.37 251H1186.31L1185.19 248.3ZM1184.27 246.086L1182.28 241.262L1180.28 246.086H1184.27ZM1191.04 238.4H1193.94V246.608L1199.95 238.4H1202.68V251H1199.8V242.81L1193.79 251H1191.04V238.4ZM1196.85 237.59C1194.55 237.59 1193.38 236.672 1193.36 234.836H1195.36C1195.38 235.712 1195.88 236.15 1196.85 236.15C1197.33 236.15 1197.7 236.042 1197.95 235.826C1198.2 235.598 1198.33 235.268 1198.35 234.836H1200.34C1200.33 235.736 1200.04 236.42 1199.46 236.888C1198.89 237.356 1198.02 237.59 1196.85 237.59ZM1149.12 260.4V273H1146.21V267.834H1140.48V273H1137.57V260.4H1140.48V265.368H1146.21V260.4H1149.12ZM1158.29 273.216C1156.98 273.216 1155.8 272.934 1154.74 272.37C1153.7 271.806 1152.88 271.032 1152.28 270.048C1151.69 269.052 1151.4 267.936 1151.4 266.7C1151.4 265.464 1151.69 264.354 1152.28 263.37C1152.88 262.374 1153.7 261.594 1154.74 261.03C1155.8 260.466 1156.98 260.184 1158.29 260.184C1159.6 260.184 1160.77 260.466 1161.82 261.03C1162.86 261.594 1163.68 262.374 1164.28 263.37C1164.88 264.354 1165.18 265.464 1165.18 266.7C1165.18 267.936 1164.88 269.052 1164.28 270.048C1163.68 271.032 1162.86 271.806 1161.82 272.37C1160.77 272.934 1159.6 273.216 1158.29 273.216ZM1158.29 270.732C1159.03 270.732 1159.71 270.564 1160.31 270.228C1160.91 269.88 1161.37 269.4 1161.71 268.788C1162.06 268.176 1162.23 267.48 1162.23 266.7C1162.23 265.92 1162.06 265.224 1161.71 264.612C1161.37 264 1160.91 263.526 1160.31 263.19C1159.71 262.842 1159.03 262.668 1158.29 262.668C1157.55 262.668 1156.87 262.842 1156.27 263.19C1155.67 263.526 1155.2 264 1154.85 264.612C1154.52 265.224 1154.35 265.92 1154.35 266.7C1154.35 267.48 1154.52 268.176 1154.85 268.788C1155.2 269.4 1155.67 269.88 1156.27 270.228C1156.87 270.564 1157.55 270.732 1158.29 270.732ZM1176.16 266.43C1176.93 266.658 1177.52 267.03 1177.93 267.546C1178.33 268.062 1178.54 268.698 1178.54 269.454C1178.54 270.57 1178.11 271.44 1177.26 272.064C1176.42 272.688 1175.21 273 1173.64 273H1167.43V260.4H1173.3C1174.76 260.4 1175.9 260.682 1176.72 261.246C1177.54 261.81 1177.94 262.614 1177.94 263.658C1177.94 264.282 1177.79 264.834 1177.48 265.314C1177.16 265.782 1176.73 266.154 1176.16 266.43ZM1170.33 265.62H1173.05C1173.68 265.62 1174.16 265.494 1174.49 265.242C1174.81 264.978 1174.97 264.594 1174.97 264.09C1174.97 263.598 1174.81 263.22 1174.47 262.956C1174.15 262.692 1173.67 262.56 1173.05 262.56H1170.33V265.62ZM1173.53 270.84C1174.9 270.84 1175.59 270.3 1175.59 269.22C1175.59 268.176 1174.9 267.654 1173.53 267.654H1170.33V270.84H1173.53ZM1180.84 260.4H1183.74V268.608L1189.75 260.4H1192.49V273H1189.61V264.81L1183.6 273H1180.84V260.4ZM1207.18 260.4V273H1204.27V267.834H1198.54V273H1195.63V260.4H1198.54V265.368H1204.27V260.4H1207.18ZM1215.22 267.924H1213.2V273H1210.3V260.4H1213.2V265.494H1215.29L1218.6 260.4H1221.68L1217.56 266.484L1221.81 273H1218.49L1215.22 267.924ZM1223.17 260.4H1226.07V268.608L1232.08 260.4H1234.82V273H1231.94V264.81L1225.93 273H1223.17V260.4ZM1149.05 282.4V295H1146.15V284.776H1140.46V295H1137.57V282.4H1149.05ZM1161.93 292.66V295H1152.17V282.4H1161.7V284.74H1155.07V287.476H1160.92V289.744H1155.07V292.66H1161.93ZM1169.74 282.4C1170.85 282.4 1171.82 282.586 1172.64 282.958C1173.46 283.33 1174.1 283.858 1174.54 284.542C1174.99 285.226 1175.21 286.036 1175.21 286.972C1175.21 287.896 1174.99 288.706 1174.54 289.402C1174.1 290.086 1173.46 290.614 1172.64 290.986C1171.82 291.346 1170.85 291.526 1169.74 291.526H1167.2V295H1164.28V282.4H1169.74ZM1169.58 289.15C1170.45 289.15 1171.12 288.964 1171.57 288.592C1172.03 288.208 1172.26 287.668 1172.26 286.972C1172.26 286.264 1172.03 285.724 1171.57 285.352C1171.12 284.968 1170.45 284.776 1169.58 284.776H1167.2V289.15H1169.58ZM1185.86 288.43C1186.63 288.658 1187.22 289.03 1187.63 289.546C1188.04 290.062 1188.24 290.698 1188.24 291.454C1188.24 292.57 1187.81 293.44 1186.96 294.064C1186.12 294.688 1184.92 295 1183.34 295H1177.13V282.4H1183C1184.47 282.4 1185.61 282.682 1186.42 283.246C1187.24 283.81 1187.65 284.614 1187.65 285.658C1187.65 286.282 1187.49 286.834 1187.18 287.314C1186.87 287.782 1186.43 288.154 1185.86 288.43ZM1180.03 287.62H1182.75C1183.39 287.62 1183.87 287.494 1184.19 287.242C1184.51 286.978 1184.68 286.594 1184.68 286.09C1184.68 285.598 1184.51 285.22 1184.17 284.956C1183.85 284.692 1183.37 284.56 1182.75 284.56H1180.03V287.62ZM1183.24 292.84C1184.6 292.84 1185.29 292.3 1185.29 291.22C1185.29 290.176 1184.6 289.654 1183.24 289.654H1180.03V292.84H1183.24ZM1196.65 286.54C1198.18 286.54 1199.36 286.882 1200.18 287.566C1201 288.25 1201.42 289.264 1201.42 290.608C1201.42 292.036 1200.96 293.128 1200.05 293.884C1199.15 294.628 1197.88 295 1196.23 295H1190.55V282.4H1193.44V286.54H1196.65ZM1196.07 292.84C1196.83 292.84 1197.42 292.654 1197.84 292.282C1198.27 291.91 1198.48 291.37 1198.48 290.662C1198.48 289.354 1197.68 288.7 1196.07 288.7H1193.44V292.84H1196.07ZM1203.02 282.4H1205.92V295H1203.02V282.4ZM1220.52 295L1220.5 287.458L1216.8 293.668H1215.5L1211.79 287.602V295H1209.06V282.4H1211.47L1216.18 290.23L1220.83 282.4H1223.24L1223.26 295H1220.52Z" fill="#1C2A39"/>
<defs>
<filter id="filter0_d_247_2" x="0" y="0" width="1238" height="820" filterUnits="userSpaceOnUse" color-interpolation-filters="sRGB">
<feFlood flood-opacity="0" result="BackgroundImageFix"/>
<feColorMatrix in="SourceAlpha" type="matrix" values="0 0 0 0 0 0 0 0 0 0 0 0 0 0 0 0 0 0 127 0" result="hardAlpha"/>
<feOffset dy="6"/>
<feGaussianBlur stdDeviation="29.5"/>
<feColorMatrix type="matrix" values="0 0 0 0 0.208402 0 0 0 0 0.190642 0 0 0 0 0.329167 0 0 0 0.08 0"/>
<feBlend mode="normal" in2="BackgroundImageFix" result="effect1_dropShadow_247_2"/>
<feBlend mode="normal" in="SourceGraphic" in2="effect1_dropShadow_247_2" result="shape"/>
</filter>
<filter id="filter1_d_247_2" x="1187" y="409" width="188" height="327" filterUnits="userSpaceOnUse" color-interpolation-filters="sRGB">
<feFlood flood-opacity="0" result="BackgroundImageFix"/>
<feColorMatrix in="SourceAlpha" type="matrix" values="0 0 0 0 0 0 0 0 0 0 0 0 0 0 0 0 0 0 127 0" result="hardAlpha"/>
<feOffset dy="24"/>
<feGaussianBlur stdDeviation="18"/>
<feColorMatrix type="matrix" values="0 0 0 0 0.207843 0 0 0 0 0.192157 0 0 0 0 0.329412 0 0 0 0.28 0"/>
<feBlend mode="normal" in2="BackgroundImageFix" result="effect1_dropShadow_247_2"/>
<feBlend mode="normal" in="SourceGraphic" in2="effect1_dropShadow_247_2" result="shape"/>
</filter>
<filter id="filter2_d_247_2" x="1100" y="130" width="181" height="257" filterUnits="userSpaceOnUse" color-interpolation-filters="sRGB">
<feFlood flood-opacity="0" result="BackgroundImageFix"/>
<feColorMatrix in="SourceAlpha" type="matrix" values="0 0 0 0 0 0 0 0 0 0 0 0 0 0 0 0 0 0 127 0" result="hardAlpha"/>
<feOffset dy="24"/>
<feGaussianBlur stdDeviation="18"/>
<feColorMatrix type="matrix" values="0 0 0 0 0.207843 0 0 0 0 0.192157 0 0 0 0 0.329412 0 0 0 0.28 0"/>
<feBlend mode="normal" in2="BackgroundImageFix" result="effect1_dropShadow_247_2"/>
<feBlend mode="normal" in="SourceGraphic" in2="effect1_dropShadow_247_2" result="shape"/>
</filter>
<clipPath id="clip0_247_2">
<rect width="1016.1" height="429.1" fill="white" transform="translate(111 298)"/>
</clipPath>
</defs>
</svg>
