<svg width="25" height="25" viewBox="0 0 25 25" fill="none" xmlns="http://www.w3.org/2000/svg">
<path fill-rule="evenodd" clip-rule="evenodd" d="M18.0101 8.87941C20.091 5.05 20.8704 2.06029 20.3998 1.61618C19.9969 1.23382 16.6646 2.45588 15.0499 3.68529C14.741 3.92353 13.4881 7.51618 13.094 7.67206C12.7572 7.81029 12.8087 5.49853 12.9984 4.48529C11.4322 5.21323 8.80132 7.09118 7.34838 8.39265C7.23515 8.49559 6.9425 13.2059 6.8072 13.3471C6.53073 13.6235 5.69838 10.1574 5.46603 10.4544C2.13662 14.6897 0.641027 19.4132 2.02926 21.4426C0.702792 23.5779 0.0380859 24.9603 0.0380859 24.9603L1.06014 24.9206C1.67779 23.8632 2.29103 22.8706 2.90132 21.9088L2.9425 21.9309C4.41014 22.075 7.98367 21.6618 11.5513 18.3235C11.5513 18.3235 9.56603 17.1897 9.88956 16.85C10.2101 16.5088 13.291 15.4941 13.6131 15.1118C14.7675 13.7324 15.4204 13.0912 16.2954 11.75C16.5263 11.4 13.8969 12.0368 14.1101 11.6912C14.3175 11.3559 14.7998 9.65147 18.0101 8.87941Z" fill="#1C2A39"/>
</svg>
